<?xml version="1.0" encoding="UTF-8" standalone="no"?>
<!-- Created with Inkscape (http://www.inkscape.org/) -->

<svg
   width="182.36642mm"
   height="259.40512mm"
   viewBox="0 0 182.36643 259.40512"
   version="1.1"
   id="svg5"
   inkscape:version="1.1.1 (3bf5ae0d25, 2021-09-20)"
   sodipodi:docname="doctor.svg"
   xmlns:inkscape="http://www.inkscape.org/namespaces/inkscape"
   xmlns:sodipodi="http://sodipodi.sourceforge.net/DTD/sodipodi-0.dtd"
   xmlns="http://www.w3.org/2000/svg"
   xmlns:svg="http://www.w3.org/2000/svg">
  <sodipodi:namedview
     id="namedview7"
     pagecolor="#505050"
     bordercolor="#eeeeee"
     borderopacity="1"
     inkscape:pageshadow="0"
     inkscape:pageopacity="0"
     inkscape:pagecheckerboard="0"
     inkscape:document-units="mm"
     showgrid="false"
     fit-margin-top="0"
     fit-margin-left="0"
     fit-margin-right="0"
     fit-margin-bottom="0"
     inkscape:zoom="0.64"
     inkscape:cx="284.94338"
     inkscape:cy="391.56125"
     inkscape:window-width="1046"
     inkscape:window-height="1041"
     inkscape:window-x="858"
     inkscape:window-y="0"
     inkscape:window-maximized="0"
     inkscape:current-layer="layer1" />
  <defs
     id="defs2" />
  <g
     inkscape:label="Capa 1"
     inkscape:groupmode="layer"
     id="layer1"
     transform="translate(199.52116,-33.574856)">
    <g
       id="g4178"
       transform="translate(-31.790612,4.8167594)">
      <path
         style="fill:#fafbfb;stroke-width:0.352778"
         d="m -166.85204,288.06011 c -0.0248,-0.17559 -0.11415,-0.71613 -0.19864,-1.2012 -0.32534,-1.86776 -0.53178,-94.83498 -0.21186,-95.40665 0.27272,-0.48733 0.50582,-0.29834 1.39373,1.13001 1.14273,1.83826 2.76794,2.8563 5.04804,3.16213 3.03683,0.40732 7.0708,-3.29392 7.06456,-6.48186 -0.007,-3.77649 -2.68063,-6.82586 -5.98392,-6.82586 -0.79486,0 -1.06966,-0.16313 -1.06966,-0.635 0,-0.34925 0.15621,-0.79121 0.34715,-0.98215 0.19093,-0.19093 0.80259,-1.84986 1.35925,-3.68652 2.26404,-7.47008 5.07946,-12.46008 9.59699,-17.00952 3.13619,-3.15835 4.02944,-3.7135 3.68957,-2.29306 -0.10445,0.43657 -2.16952,10.795 -4.58903,23.01875 -2.41952,12.22375 -4.70759,23.1775 -5.08462,24.34167 -0.92334,2.85106 -3.33243,15.55712 -3.07624,16.22474 0.11233,0.29271 0.34038,0.53221 0.50679,0.53221 0.3803,0 11.60359,-12.0879 12.77425,-13.75834 0.83799,-1.19573 27.57704,-30.29415 33.36922,-36.31361 2.86375,-2.97612 2.86375,-2.97612 3.60632,-0.70556 1.23559,3.77804 1.58398,6.78515 1.38405,11.94624 -0.10202,2.63351 -0.29894,5.06602 -0.43761,5.40557 -0.19676,0.48178 -0.67507,0.61736 -2.17786,0.61736 -2.18121,0 -2.97457,0.32412 -4.62994,1.89149 -1.53186,1.45042 -3.91513,8.60025 -3.30968,9.92906 0.43921,0.96396 0.30846,1.54213 -1.87422,8.28779 -4.56995,14.1236 -5.55331,17.71881 -5.34948,19.55801 0.45456,4.10174 0.69907,5.34203 1.15692,5.86858 0.53435,0.61453 0.26906,0.98329 -6.63826,9.22723 -1.88071,2.24465 -4.49188,5.40674 -5.80259,7.02688 -1.31071,1.62012 -4.62278,5.64444 -7.36015,8.94291 -2.73737,3.29847 -5.43942,6.63222 -6.00454,7.40833 -1.26273,1.73414 -4.94398,6.27212 -7.58368,9.34861 -1.08212,1.26118 -2.37996,2.84868 -2.88409,3.52778 -0.50413,0.6791 -1.21462,1.55222 -1.57886,1.94028 -0.36425,0.38805 -1.39297,1.65805 -2.28604,2.82222 -1.79503,2.33991 -3.09675,3.63161 -3.16587,3.14148 z m 44.76907,-56.68572 c -1.0068,-0.40235 -2.03793,-2.12549 -2.03793,-3.40562 0,-0.41336 0.30239,-1.65937 0.67198,-2.76891 0.36959,-1.10954 0.82623,-2.57297 1.01476,-3.25206 0.18853,-0.6791 1.64278,-5.36223 3.23166,-10.40695 2.27569,-7.22534 3.06577,-9.30557 3.72227,-9.80045 0.56182,-0.42352 1.20149,-1.74552 1.96302,-4.05695 1.17455,-3.56501 1.76473,-4.55005 3.01208,-5.02729 1.11346,-0.42602 7.19016,0.98512 8.20236,1.90476 0.8052,0.73156 0.82123,0.85955 0.58546,4.6746 -0.17619,2.85099 -0.12435,4.11148 0.18978,4.61449 0.30108,0.4821 0.35574,1.4059 0.18019,3.04517 -0.2762,2.57916 0.35763,1.63407 -6.90124,10.29012 -1.13896,1.35819 -4.26981,5.16726 -6.95743,8.46459 -2.68762,3.29733 -5.11827,6.02064 -5.40143,6.05178 -0.28317,0.0311 -0.94716,-0.11613 -1.47553,-0.32728 z m 67.459291,-13.67248 c -1.129623,-0.26939 -5.83716,-2.11473 -31.524054,-12.3573 -5.029595,-2.00553 -8.96147,-3.38586 -9.219093,-3.23647 -0.247057,0.14327 -1.280939,1.25944 -2.297511,2.48038 -1.016568,1.22095 -2.027354,2.16101 -2.246189,2.08904 -0.760664,-0.25018 -0.605034,-1.57239 0.313581,-2.66411 1.232263,-1.46446 1.965272,-6.90715 1.252096,-9.297 -0.570399,-1.9114 -2.741531,-4.04822 -4.436261,-4.36615 -1.24284,-0.23316 -1.24284,-0.23316 -0.97257,-2.57408 0.14865,-1.28751 0.24769,-4.6428 0.22007,-7.4562 -0.0422,-4.29562 -0.19809,-5.669 -0.97316,-8.57092 -0.88465,-3.3122 -2.17481,-6.27485 -3.71844,-8.53881 -0.7517,-1.10247 -0.96079,-2.29305 -0.40272,-2.29305 0.35305,0 2.67825,0.96346 5.5855,2.31438 5.971733,2.77492 7.101448,3.24961 23.542847,9.89234 6.726171,2.71754 11.767993,4.57008 11.947973,4.3901 0.171256,-0.17126 0.411664,-8.14279 0.534237,-17.71452 0.22286,-17.40313 0.22286,-17.40313 13.099249,-17.40313 12.876389,0 12.876389,0 12.8885,13.22916 0.0067,7.27604 0.07546,21.96042 0.152898,32.63195 0.156301,21.54072 0.158139,21.5194 -2.157713,25.0157 -2.364299,3.56944 -7.293599,5.45311 -11.58924,4.42869 z M -167.28553,186.247 c -0.11957,-0.44644 -0.40018,-11.99907 -0.40283,-25.63561 -0.004,-19.92568 -0.14821,-25.98717 0.21767,-26.12754 0.25034,-0.0961 3.62647,1.13658 7.20817,2.66547 3.5817,1.52888 9.66483,4.11278 13.51807,5.74199 3.85323,1.6292 7.07681,4.25953 7.17344,4.50216 0.22166,0.55661 -2.16908,3.99877 -2.81023,3.99877 -0.75117,0 -4.60562,2.00915 -6.44551,3.35975 -2.14108,1.57171 -5.56375,5.22931 -7.33338,7.83677 -3.27484,4.8253 -7.06979,14.085 -6.83315,16.67292 0.26208,2.86618 0.12957,3.30654 -1.36964,4.55187 -0.81325,0.67553 -1.75461,1.68204 -2.09191,2.2367 -0.61104,1.00477 -0.61408,1.00549 -0.8307,0.19675 z m 23.81481,-84.77282 c -0.0192,-1.99896 0.12866,-3.382329 0.39923,-3.734736 0.56607,-0.737292 1.80231,-1.38054 2.6532,-1.38054 0.54353,0 0.36885,0.313482 -0.85875,1.541082 -1.32457,1.324564 -1.54695,1.758251 -1.58282,3.086804 -0.0895,3.3157 -0.57992,3.70696 -0.61086,0.48739 z m 85.889066,-43.936873 c -1.279243,-1.520296 -1.738457,-3.57493 -1.536474,-6.874558 0.219219,-3.581194 1.618322,-6.540161 4.356417,-9.213397 2.306592,-2.251952 4.424642,-3.239467 7.507895,-3.50046 1.961028,-0.165998 2.513718,-0.08239 3.478054,0.52614 1.848312,1.16635 1.592506,1.914286 -2.121133,6.201926 -2.741341,3.165061 -4.101652,5.251859 -6.438971,9.877778 -0.882322,1.74625 -1.867747,3.373438 -2.189833,3.615973 -0.977872,0.736349 -2.098897,0.503996 -3.055955,-0.633402 z"
         id="path4194"
         sodipodi:nodetypes="ssssscsssssssssssssssssssssssssssssssssssssssssssssssssssssssssssssssscssssccsssssssssssssscssssssssss" />
      <path
         style="fill:#6c63ff;fill-opacity:1;stroke:#4e3423;stroke-width:0.353;stroke-miterlimit:4;stroke-dasharray:none;stroke-opacity:1"
         d="m -116.00701,277.34733 c -1.06716,-0.15851 -3.28966,-0.46272 -4.93889,-0.67601 -5.56037,-0.71913 -14.68652,-2.93601 -21.094,-5.12407 -5.42423,-1.8523 -8.10972,-2.8522 -8.09964,-3.22514 6.5498,-8.63754 14.84924,-16.52381 21.96169,-25.54807 0.58209,-0.75107 2.1358,-2.67178 3.4527,-4.26825 2.39436,-2.90266 2.39436,-2.90266 1.5875,-3.81138 -0.44378,-0.4998 -0.13172,-0.31787 0.69346,0.40428 2.28436,1.99914 4.67329,1.75467 4.67329,-0.47825 0,-1.02108 -0.49296,-1.58766 -1.55461,-1.78676 -0.54396,-0.10202 0.2323,-1.21615 4.05694,-5.82271 2.60129,-3.1331 5.92024,-7.17331 7.37544,-8.97825 1.45521,-1.80493 3.23718,-3.92461 3.95994,-4.71039 1.2577,-1.3674 1.31431,-1.39086 1.31937,-0.54676 0.004,0.74335 -0.82167,7.27179 -2.07887,16.42841 -0.30546,2.22471 -1.00826,3.94364 -1.92268,4.70255 -0.42335,0.35135 -0.45247,0.61806 -0.14192,1.29965 0.37539,0.82389 0.41763,0.83325 1.07513,0.23822 1.38679,-1.25503 2.3157,-3.42171 2.6858,-6.26466 0.20207,-1.55222 0.6944,-5.28285 1.09406,-8.29028 0.39967,-3.00743 0.89847,-6.81743 1.10844,-8.46666 0.20998,-1.64924 0.53734,-3.29061 0.72748,-3.6475 0.19014,-0.35688 1.399858,-1.91394 2.688259,-3.46013 1.529934,-1.83603 2.529385,-2.75265 2.881136,-2.64235 0.513225,0.16093 1.930421,0.72898 13.767749,5.51846 15.892848,6.43038 24.907548,9.88238 26.757984,10.24643 5.085002,1.00041 10.290267,-1.88006 12.705444,-7.03091 0.929629,-1.98261 0.929629,-1.98261 0.965983,-35.32012 0.02053,-18.81223 -0.100175,-33.60648 -0.276994,-33.95486 -0.222917,-0.43919 -0.742474,-0.61892 -1.800243,-0.62276 -0.889526,-0.003 -1.306957,-0.11961 -1.039015,-0.28967 0.336543,-0.21361 0.389378,-1.04539 0.212541,-3.34599 -0.231581,-3.01279 -0.365114,-3.36904 -1.030838,-2.75016 -0.184326,0.17135 -1.128889,0.41266 -2.099027,0.53625 -1.763889,0.2247 -1.763889,0.2247 -0.466941,-0.92891 3.309215,-2.94349 11.98122,-6.23979 18.952627,-7.20406 2.211987,-0.30595 4.550731,-0.77728 5.197211,-1.0474 1.289131,-0.53863 6.227512,-6.07429 7.313059,-8.19754 0.361385,-0.70685 1.055874,-1.7114 1.543311,-2.23236 1.119297,-1.19625 0.891229,-2.63166 -0.472525,-2.97394 -1.351792,-0.33928 -4.288039,1.15691 -5.261187,2.68088 -1.264468,1.98019 -3.941434,4.03397 -4.978746,3.81972 -0.401073,-0.0828 -0.257379,-0.4152 0.581392,-1.34475 2.329,-2.58108 2.826484,-4.49875 3.696663,-14.24965 0.483609,-5.419119 0.345098,-6.641688 -0.802354,-7.082004 -0.664919,-0.255153 -2.002261,0.600343 -2.769895,1.771901 -0.321285,0.490343 -1.092351,3.090773 -1.713484,5.778723 -1.022791,4.42616 -2.520364,8.13725 -3.283306,8.13626 -0.137344,-1.8e-4 -0.256593,-2.18299 -0.265003,-4.8507 -0.01312,-4.15783 -0.262022,-6.62216 -1.067922,-10.572825 -0.08791,-0.43096 -0.481464,-0.955692 -0.874557,-1.166068 -1.957741,-1.047753 -3.510288,1.368612 -3.510288,5.463363 0,1.93309 -0.124022,2.65989 -0.453887,2.65989 -0.249636,0 -2.179158,-1.7513 -4.287823,-3.89177 -3.833937,-3.891761 -3.833937,-3.891761 -3.073891,-4.599853 0.855363,-0.79689 0.918693,-1.136104 0.394857,-2.114907 -0.463116,-0.865335 -2.629059,-0.95668 -2.948457,-0.124343 -0.37471,0.976474 -0.23151,1.9269 0.322348,2.139435 0.395199,0.151652 0.232618,0.366737 -0.617362,0.816733 -0.634611,0.335975 -1.590403,0.717628 -2.123979,0.848113 -0.844208,0.206456 -0.970139,0.409392 -0.970139,1.563399 0,0.803317 -0.503449,2.365343 -1.276982,3.962033 -1.246974,2.57394 -2.934603,7.40044 -2.956969,8.45671 -0.02283,1.07851 -1.644022,3.81109 -6.697476,11.28889 -1.040758,1.54005 -3.209233,8.7068 -3.284943,10.85665 -0.07113,2.01974 -0.07113,2.01974 -1.400683,1.89386 -1.97303,-0.18681 -2.312293,0.28701 -2.31278,3.23005 -2.29e-4,1.39715 0.153586,2.72622 0.341814,2.95349 0.247318,0.29862 0.149341,0.36278 -0.353282,0.23134 -0.458985,-0.12003 -0.822699,0.0558 -1.069513,0.51694 -0.247417,0.46231 -0.383473,6.43012 -0.401994,17.63235 -0.01538,9.31344 -0.106592,17.01213 -0.202657,17.10819 -0.09606,0.0961 -1.238447,-0.2625 -2.538628,-0.79681 -1.30018,-0.53432 -5.697714,-2.2705 -9.772297,-3.85818 -5.481986,-1.10364 -29.402391,-12.80442 -29.015971,-11.93573 0.42296,-2.47131 -6.12225,-2.90339 -5.3488,-5.28835 0.17739,-0.53358 0.64324,-2.10988 1.03522,-3.5029 0.64465,-2.29097 0.82143,-2.56911 1.85169,-2.91343 0.62644,-0.20937 2.09149,-1.01248 3.25566,-1.78469 1.16416,-0.77221 2.86995,-1.89524 3.79063,-2.49563 2.08728,-1.36112 5.549333,-5.16129 6.806654,-7.4714 0.94996,-1.7454 0.94996,-1.7454 1.24049,-13.26795 0.159791,-6.3374 0.396985,-11.79996 0.527092,-12.13903 0.130112,-0.33906 0.65562,-0.71277 1.167794,-0.83046 1.526956,-0.35086 3.651021,-1.98744 4.159783,-3.20508 0.752845,-1.80181 0.608848,-4.99821 -0.290686,-6.45262 -0.54018,-0.8734 -0.772259,-1.836792 -0.793048,-3.292088 -0.03172,-2.219209 -0.625475,-3.057917 -2.164881,-3.057917 -0.713225,0 -0.746587,-0.105385 -0.474645,-1.499305 0.549995,-2.819168 0.770506,-14.754713 0.359291,-19.44719 -0.582804,-6.650468 -1.751528,-8.368355 -7.449314,-10.949594 -8.40962,-5.012275 -17.75426,0.98572 -25.96481,-3.237089 -2.7507,-1.454309 -3.87957,-2.464386 -5.48745,-4.909965 -0.9319,-1.417426 -1.74855,-2.290191 -2.14294,-2.290191 -4.79835,1.996725 -9.01417,5.412829 -10.63174,9.393633 -1.02275,2.319157 -1.61264,4.655714 -1.62554,6.438685 -0.005,0.655623 -0.43182,2.322498 -0.94904,3.704166 -0.86363,2.306977 -0.94273,2.958674 -0.96863,7.980183 -0.0188,3.656186 0.18725,6.893225 0.622,9.769087 0.5975,3.95242 0.60453,4.366246 0.0867,5.10558 -0.30994,0.4425 -0.56353,1.38538 -0.56353,2.095292 0,1.047257 -0.22096,1.459276 -1.17131,2.184146 -0.79775,0.608475 -1.36029,1.478567 -1.76389,2.728217 -0.80587,2.49524 -0.74717,3.65198 0.29738,5.85997 0.89262,1.88685 2.20231,2.94938 3.63544,2.94938 1.55713,0 1.63839,0.55438 1.83047,12.48874 0.18226,11.32376 0.18226,11.32376 1.23457,13.38055 1.33371,2.60681 4.44367,5.72547 8.28457,8.30776 2.99861,2.01601 2.99861,2.01601 2.99861,4.02653 0,1.10578 -0.0417,2.0111 -0.0926,2.0118 -0.051,7.1e-4 -0.47293,-0.85863 -0.93774,-1.90963 -1.28096,-2.89648 -3.34902,-3.92042 -3.4017,-1.68424 -0.0201,0.8516 -0.0524,0.87522 -0.31406,0.22948 -0.20157,-0.49739 -1.8026,-1.35822 -5.18111,-2.78572 -12.59289,-5.32081 -23.26761,-10.18275 -23.56682,-10.02577 -0.60987,0.31997 0.14742,-17.13618 0.13546,-37.760602 -0.0207,-35.787204 0.007,-37.401418 0.61698,-37.879983 2.59683,-2.03853 17.50844,-9.777145 18.91599,-9.784428 0.23105,-0.0012 0.86185,-0.2326 1.40177,-0.514233 0.88945,-0.463949 8.94295,-3.089194 12.42388,-4.04988 1.51753,-0.418817 6.62193,-1.44456 11.46528,-2.303976 5.40038,-0.958261 13.16675,-1.34461 22.754163,-1.13194 5.044722,0.111904 10.045347,0.365244 11.1125,0.562979 7.066968,1.309453 10.298762,1.964501 14.816667,3.003168 3.744782,0.860925 5.295015,1.081884 5.786131,0.824711 0.570621,-0.298804 0.632636,-0.252919 0.415082,0.30711 -0.485842,1.250639 -0.620963,6.66251 -0.219026,8.77229 0.221788,1.164167 0.531844,2.831042 0.68901,3.704167 0.584804,3.24883 1.895765,5.348983 5.381738,8.621515 1.811095,1.700202 3.848524,3.353086 4.527621,3.673077 0.679097,0.319987 1.330907,0.712897 1.448463,0.873132 0.117556,0.160232 0.875492,0.38009 1.684296,0.488576 1.408973,0.188979 2.418387,0.807589 1.317787,0.807589 -1.243337,0 -2.154993,2.859998 -1.212183,3.802807 0.228878,0.228879 0.460008,1.160773 0.513619,2.07088 0.05361,0.910107 0.321628,1.878891 0.595592,2.152855 0.337834,0.337834 0.443081,0.986328 0.327092,2.015388 -0.183445,1.627529 -0.312389,1.433639 2.557279,3.845415 1.658285,1.393684 3.406355,2.340434 4.321365,2.340434 0.530377,0 0.626802,0.217872 0.516097,1.166138 -0.164638,1.410244 0.527353,2.107241 1.932178,1.946159 0.902042,-0.103431 0.991471,-0.240591 0.991471,-1.52067 0,-1.37324 0.04223,-1.421278 1.760714,-2.003044 0.975956,-0.330394 2.192309,-1.079098 2.729054,-1.679822 0.532588,-0.596067 1.101658,-1.083761 1.264599,-1.083761 0.162941,0 0.659934,-0.387121 1.104434,-0.860267 0.635335,-0.676285 0.773638,-1.147822 0.646684,-2.204861 -0.100199,-0.834273 0.03485,-1.647952 0.355854,-2.143883 0.349363,-0.539765 0.446504,-1.2423 0.29917,-2.163671 -0.157897,-0.987425 -0.07264,-1.485167 0.308574,-1.801548 0.842501,-0.699209 0.67993,-3.025694 -0.257302,-3.682157 -0.592814,-0.415223 -0.645548,-0.549169 -0.21621,-0.549169 0.855881,0 6.548476,-3.120941 6.776512,-3.715195 0.309527,-0.806609 0.801232,-0.613978 1.260013,0.493617 0.230498,0.556465 2.273819,2.827303 4.540716,5.046307 7.347405,7.192165 11.249537,11.917507 17.1376413,20.753049 2.6415118,3.96379 8.0394635,14.244277 10.0951491,19.226387 6.3873456,15.4802 9.1841996,31.18683 8.7003756,48.85973 -0.337549,12.3297 -1.886914,21.1107 -5.9756187,33.86666 -2.041571,6.36931 -3.8147732,10.42311 -9.02720615,20.6375 -0.2970389,0.58209 -1.42238595,2.38658 -2.50077825,4.01 -1.0783888,1.62341 -2.2521263,3.44904 -2.6083049,4.05695 -0.7820166,1.3347 -6.423755,8.83798 -7.444638,9.90105 -0.399965,0.4165 -1.997209,2.17447 -3.549431,3.90661 -3.015026,3.36449 -3.593878,3.9557 -6.560291,6.70039 -4.99484,4.62152 -12.585048,10.51758 -16.576228,12.87639 -0.820751,0.48507 -2.030599,1.23952 -2.688555,1.67656 -1.670304,1.10946 -8.256725,4.6654 -11.216594,6.05572 -10.731479,5.04083 -22.67155,8.51832 -35.277779,10.27448 -3.444497,0.47984 -24.294536,0.75111 -26.987496,0.35111 z m 7.26367,-39.21655 c 1.98122,-0.49887 2.48675,-1.31821 1.72373,-2.79372 -0.559,-1.08099 -0.559,-1.08099 -3.09751,-0.83994 -2.90974,0.27631 -3.42045,0.56217 -3.42045,1.91457 0,1.04296 0.46207,1.58475 1.5875,1.86139 1.17485,0.28878 1.56321,0.27155 3.20673,-0.1423 z m -55.48891,-44.7437 c -1.48818,-0.9074 -2.34865,-2.62972 -2.32432,-4.65242 0.0242,-2.01573 0.8884,-3.5546 2.65119,-4.72115 1.21926,-0.80687 1.47517,-1.3204 1.43112,-2.87184 -0.006,-0.2272 0.21258,-0.32701 0.48673,-0.2218 0.27415,0.1052 0.84973,-0.10465 1.27907,-0.46635 0.65071,-0.54819 0.63582,-0.49397 -0.0895,0.32585 -1.02466,1.15811 -0.72978,1.99088 0.85505,2.41472 3.18566,0.85198 4.79221,5.30721 2.91711,8.08967 -1.79322,2.66096 -4.83556,3.54892 -7.20642,2.10332 z m 5.38145,-1.15036 c 1.75634,-1.38154 2.39216,-4.02781 1.4053,-5.8488 -0.91243,-1.68368 -1.0926,-1.83874 -2.90681,-2.50186 -1.7847,-0.65232 -1.7847,-0.65232 -3.36549,0.6989 -0.86943,0.74317 -1.78194,1.83683 -2.02778,2.43035 -0.64543,1.5582 -0.2487,3.76947 0.8894,4.9574 0.82422,0.8603 1.2193,0.99193 3.00287,1.00046 1.56717,0.007 2.27856,-0.167 3.00251,-0.73645 z m 115.059956,-76.12778 c -0.497191,-0.39109 -1.08126,-1.24823 -1.297933,-1.90475 -0.459807,-1.39323 -0.13699,-3.29682 0.458156,-2.70167 1.07108,1.07108 3.192675,-0.2715 2.800269,-1.77205 -0.22225,-0.84989 -1.258457,-1.44937 -2.00805,-1.16173 -0.320213,0.12288 -0.554722,0.0284 -0.554722,-0.22353 0,-0.31024 0.484424,-0.3853 1.675695,-0.25964 0.921632,0.0972 1.477257,0.10464 1.234722,0.0165 -0.242535,-0.0881 -0.440972,-0.55611 -0.440972,-1.0399 0,-0.87961 0,-0.87961 0.829532,0.1176 0.456244,0.54846 1.049313,1.39408 1.317932,1.87915 0.549829,0.99287 1.371149,4.92359 1.142284,5.46682 -0.216069,0.51285 -3.111437,2.29429 -3.728911,2.29429 -0.288212,0 -0.930811,-0.31998 -1.428002,-0.71107 z"
         id="path4190"
         sodipodi:nodetypes="sssccsssssssscssssssssssssssscssssssssssscssssssssssssssssssssssssssssssscccssssssssssssssccscccccssssssssssssscsssccsssssssssssssssssssssssssssssssssssssssssssssssssssssssssssssscssssssssssssscsssssssscssssssss" />
      <path
         style="fill:#bdd5df;stroke-width:0.352778"
         d="m -111.95007,238.27308 c -1.12543,-0.27664 -1.5875,-0.81843 -1.5875,-1.86139 0,-1.3524 0.51071,-1.63826 3.42045,-1.91457 2.53851,-0.24105 2.53851,-0.24105 3.09751,0.83994 0.76302,1.47551 0.25749,2.29485 -1.72373,2.79372 -1.64352,0.41385 -2.03188,0.43108 -3.20673,0.1423 z m 3.65153,-0.83757 c 0.79254,-0.27628 1.11097,-0.60996 1.11097,-1.16417 0,-1.23711 -0.65098,-1.61369 -2.43737,-1.40994 -2.63209,0.30021 -3.11738,0.45494 -3.35306,1.06909 -0.59005,1.53765 2.10207,2.4035 4.67946,1.50502 z m -37.95422,-28.98055 c 0.44591,-0.65708 3.71688,-8.24844 7.26883,-16.86968 4.12127,-10.00307 6.72871,-15.88698 7.20596,-16.26086 0.41132,-0.32224 2.23804,-1.34049 4.05937,-2.26277 1.82133,-0.92229 3.38681,-1.87314 3.47886,-2.11301 0.092,-0.23986 -0.31981,-2.71848 -0.91524,-5.50803 -1.22529,-5.74047 -1.27693,-6.28726 -0.59375,-6.28726 0.26886,0 0.94355,-0.23715 1.49931,-0.52699 0.55575,-0.28985 1.42763,-0.52797 1.93752,-0.52917 0.50988,-0.001 1.49697,-0.2403 2.19353,-0.53134 0.69656,-0.29104 1.71426,-0.52917 2.26154,-0.52917 0.91953,0 3.06843,-0.8919 4.07082,-1.68958 0.23366,-0.18595 1.1689,-0.44571 2.07832,-0.57726 7.89148,1.83585 1.20952,7.00627 2.83471,8.42045 0.64448,0.45141 0.67588,0.54917 0.17639,0.54917 -0.47986,0 -0.60766,0.31582 -0.60766,1.50164 0,0.82589 0.15152,2.02996 0.33672,2.6757 0.2767,0.9648 0.25267,1.10431 -0.13479,0.78275 -0.37043,-0.30743 -1.55811,0.76662 -5.54019,5.01014 -2.78778,2.9708 -5.84365,6.26876 -6.79082,7.32881 -0.94717,1.06004 -2.7728,3.04105 -4.05694,4.40224 -12.17072,12.90091 -18.18682,19.60111 -19.64109,21.8745 -0.6635,1.03722 -1.36967,1.98678 -1.56926,2.11013 -0.1996,0.12336 0.002,-0.31333 0.44784,-0.97041 z m -9.25124,-2.08833 c -0.008,-0.12944 0.31592,-1.00256 0.71931,-1.94028 0.40339,-0.93772 1.42964,-5.19744 2.28054,-9.46605 0.85091,-4.26862 1.86191,-9.26924 2.24668,-11.1125 1.3515,-6.47455 5.32268,-26.74162 5.32268,-27.16454 0,-0.25399 -0.25068,-0.34031 -0.61736,-0.21259 -0.33955,0.11827 -0.20587,-0.0979 0.29706,-0.48026 0.50294,-0.38241 1.3662,-1.3472 1.91837,-2.14398 0.84083,-1.21332 0.92152,-1.50634 0.49668,-1.80358 -0.37706,-0.26381 -0.27515,-0.30482 0.39705,-0.15978 0.78303,0.16895 1.126,-0.0944 2.55764,-1.96387 0.90933,-1.18743 1.65333,-2.52303 1.65333,-2.96798 0,-2.07182 2.11048,-0.9904 3.38865,1.73635 1.25493,2.67718 2.10578,3.99625 3.99868,6.19908 0.93277,1.08551 1.8803,2.33083 2.10561,2.76739 0.22532,0.43657 0.6422,0.79375 0.92642,0.79375 0.28422,0 0.51676,0.14486 0.51676,0.3219 0,0.30328 -1.02207,0.72786 -8.53174,3.54422 -1.68503,0.63194 -3.1469,1.36583 -3.24861,1.63087 -0.1017,0.26504 0.45315,2.425 1.233,4.79992 0.77985,2.37492 1.35141,4.57234 1.27013,4.88315 -0.0813,0.31082 -4.11628,7.3809 -8.96667,15.71129 -4.85038,8.33038 -9.0734,15.62241 -9.38448,16.20449 -0.31109,0.58208 -0.57196,0.95243 -0.57973,0.823 z m -9.35218,-14.39392 c -1.1381,-1.18793 -1.53483,-3.3992 -0.8894,-4.9574 0.24584,-0.59352 1.15835,-1.68718 2.02778,-2.43035 1.58079,-1.35122 1.58079,-1.35122 3.36549,-0.6989 0.98157,0.35879 1.92101,0.85414 2.08762,1.10078 1.43815,2.12898 1.64553,3.43317 0.84904,5.33944 -0.7943,1.90103 -2.06381,2.65824 -4.43766,2.64689 -1.78357,-0.009 -2.17865,-0.14016 -3.00287,-1.00046 z m 98.947788,-50.6296 c -0.424981,-0.51207 -0.363396,-5.19963 0.07538,-5.73768 0.505703,-0.62012 2.784242,-0.54898 3.734481,0.11659 0.674825,0.47267 1.747636,0.53403 7.045858,0.40303 7.182111,-0.17758 10.2371,-0.4636 10.909141,-1.02134 0.260156,-0.21592 0.527456,-0.33026 0.594,-0.2541 0.06654,0.0761 0.229334,1.52252 0.361756,3.21416 0.235769,3.01185 0.223926,3.07928 -0.570487,3.24895 -1.73585,0.37073 -21.844773,0.39832 -22.150131,0.0304 z m 23.109171,-46.179191 c 0.500783,-0.76429 0.500592,-0.893459 -0.0021,-1.396122 -0.304652,-0.304652 -0.787446,-0.464301 -1.072872,-0.354771 -0.631938,0.242496 -0.690887,1.759374 -0.07798,2.006685 0.259334,0.104644 0.182118,0.189406 -0.187459,0.205786 -0.774855,0.03433 -1.106921,-0.746139 -0.814003,-1.913216 0.182319,-0.726419 0.434619,-0.881155 1.436744,-0.881155 1.728128,0 2.520347,1.491891 1.391603,2.620635 -0.848963,0.848963 -1.294215,0.658795 -0.673954,-0.287842 z M -94.54292,90.361682 c -46.41677,-51.808577 -23.20838,-25.904288 0,0 z m 49.81465,1.255966 c -0.248292,-0.299169 -0.381324,-1.021651 -0.295634,-1.605513 0.125994,-0.858438 0.02914,-1.061564 -0.506169,-1.061564 -0.924112,0 -2.666874,-0.941751 -4.331106,-2.340434 -2.869668,-2.411776 -2.740724,-2.217886 -2.557279,-3.845415 0.115989,-1.02906 0.01076,-1.677554 -0.327092,-2.015388 -0.273964,-0.273964 -0.54198,-1.242748 -0.595592,-2.152855 -0.05361,-0.910107 -0.284741,-1.842001 -0.513619,-2.07088 -0.876251,-0.87625 -0.05307,-3.802807 1.06965,-3.802807 0.213099,0 0.124721,0.290312 -0.196391,0.645139 -0.789852,0.872776 -0.736078,2.377627 0.115386,3.229092 0.558843,0.558842 0.631317,0.877849 0.360977,1.588897 -0.344816,0.906932 0.150921,2.650762 0.753558,2.650762 0.159173,0 0.194091,0.695399 0.07759,1.545329 -0.177881,1.297774 -0.09039,1.650982 0.546118,2.204861 0.416856,0.362743 1.189898,1.077538 1.717862,1.588435 3.333468,3.225687 8.073489,3.062608 12.022706,-0.413636 2.133113,-1.877646 2.539915,-2.730115 1.834684,-3.844657 -0.218828,-0.345835 -0.09609,-0.792974 0.385829,-1.405643 0.563704,-0.716629 0.661074,-1.203032 0.481091,-2.403249 -0.124111,-0.827628 -0.08266,-1.504774 0.09211,-1.504774 0.502154,0 1.140435,-1.691284 0.897096,-2.37707 -0.121299,-0.341848 -0.474225,-0.93364 -0.784281,-1.315092 -0.549124,-0.675569 -0.540876,-0.6791 0.318205,-0.136186 1.081867,0.683712 1.405146,2.860403 0.563019,3.790943 -0.380604,0.420561 -0.479209,0.986074 -0.331089,1.898841 0.139478,0.859483 0.03538,1.571141 -0.307244,2.100481 -0.321808,0.497177 -0.456989,1.31016 -0.356701,2.145178 0.126954,1.057039 -0.01136,1.528576 -0.646684,2.204861 -0.4445,0.473146 -0.941493,0.860267 -1.104434,0.860267 -0.162941,0 -0.732011,0.487694 -1.264599,1.083761 -0.536745,0.600724 -1.753098,1.349428 -2.729054,1.679822 -1.718486,0.581766 -1.760714,0.629804 -1.760714,2.003044 0,1.313812 -0.07207,1.414018 -1.088379,1.513195 -0.660206,0.06442 -1.265982,-0.107785 -1.539823,-0.437745 z m -61.40097,-30.022046 c -38.69255,-32.63119 -19.34628,-16.315595 0,0 z"
         id="path4188"
         sodipodi:nodetypes="ssssssssssssssscssscsssccsssssscsssscssssscsssssssssssssssscsssssscsssssscssssssssssssssccsssssssssssssssssssssssssssssssssssscc" />
      <path
         style="fill:#e2d6b5;stroke-width:0.352778"
         d="m -127.20771,158.57209 c -0.63059,-0.31086 -1.14653,-0.69531 -1.14653,-0.85434 0,-0.15903 -1.04096,-1.51404 -2.31325,-3.01113 -2.93235,-3.45046 -3.38955,-4.34677 -3.25921,-6.38942 0.10441,-1.63626 0.10441,-1.63626 -2.8942,-3.6612 -3.84973,-2.59969 -6.95397,-5.71597 -8.28457,-8.31669 -1.05231,-2.05679 -1.05231,-2.05679 -1.23457,-13.38055 -0.19208,-11.93436 -0.27334,-12.48874 -1.83047,-12.48874 -1.43313,0 -2.74282,-1.06253 -3.63544,-2.94938 -1.0433,-2.20534 -1.10313,-3.3651 -0.30164,-5.84676 0.41958,-1.29917 0.97605,-2.128694 1.94027,-2.892373 1.67024,-1.32285 1.7705,-1.006253 0.162,0.511503 -1.35548,1.27901 -2.23517,4.26497 -1.85442,6.29453 0.35092,1.8706 2.04709,3.66692 3.90398,4.13449 0.8731,0.21985 1.72794,0.67652 1.89965,1.01483 0.17171,0.3383 0.3362,4.58385 0.36553,9.43454 0.0724,11.96657 0.25908,14.0773 1.41669,16.0146 1.69105,2.83006 4.66409,5.6669 8.24674,7.86895 3.6189,2.22433 3.87955,2.60637 3.12759,4.58417 -0.32338,0.85056 0.45195,3.45867 1.02818,3.45867 0.15838,0 1.41499,1.42875 2.79246,3.175 1.37748,1.74625 2.75254,3.175 3.05568,3.175 0.30314,0 2.77092,-0.58428 5.48396,-1.2984 4.42793,-1.16553 4.98451,-1.39842 5.43809,-2.27554 0.2779,-0.53742 0.50529,-1.24887 0.50529,-1.581 0,-0.33213 0.27174,-1.46595 0.60387,-2.5196 0.56826,-1.8027 0.72956,-1.97915 2.73403,-2.99064 5.68115,-2.8668 11.13446,-7.58946 12.979477,-11.24047 0.971546,-1.92254 0.971546,-1.92254 1.188219,-12.8508 0.119168,-6.01055 0.321874,-11.48389 0.450458,-12.16299 0.192303,-1.01564 0.444857,-1.29731 1.42336,-1.58744 0.654265,-0.19399 1.810152,-0.90837 2.568639,-1.5875 1.208027,-1.08164 1.402739,-1.47542 1.569977,-3.17506 0.144113,-1.46465 0.01108,-2.41075 -0.542688,-3.85953 -0.403483,-1.05559 -0.671989,-1.980863 -0.596685,-2.056167 0.0753,-0.0753 0.547786,0.56418 1.049962,1.421077 1.048212,1.78864 1.243428,4.7849 0.437434,6.71391 -0.508762,1.21764 -2.632827,2.85422 -4.159783,3.20508 -0.512174,0.11769 -1.037682,0.4914 -1.167794,0.83046 -0.130107,0.33907 -0.367301,5.80163 -0.527092,12.13903 -0.29053,11.52255 -0.29053,11.52255 -1.24049,13.26795 -1.257321,2.31011 -4.719374,6.11028 -6.806654,7.4714 -0.92068,0.60039 -2.62647,1.72342 -3.79063,2.49563 -1.16417,0.77221 -2.62922,1.57532 -3.25566,1.78469 -1.01394,0.33886 -1.2173,0.64357 -1.85209,2.77507 -0.3922,1.31693 -0.71309,2.66232 -0.71309,2.98978 0,0.96353 -1.57879,2.26269 -3.04739,2.50764 -0.74928,0.12497 -2.06529,0.45299 -2.92448,0.72894 -0.85918,0.27594 -1.89106,0.50268 -2.29305,0.50388 -0.402,10e-4 -1.18562,0.23932 -1.74137,0.52917 -1.25528,0.65467 -1.53041,0.64962 -2.95829,-0.0543 z m 65.100622,-23.01123 c -0.613184,-0.42494 -0.670983,-0.73318 -0.463059,-2.46944 0.278475,-2.32541 2.503477,-9.35207 3.365041,-10.62696 5.053454,-7.4778 6.674641,-10.21038 6.697476,-11.28889 0.02237,-1.05627 1.709995,-5.88277 2.956969,-8.45671 0.773533,-1.59669 1.276982,-3.158716 1.276982,-3.962033 0,-1.15346 0.126329,-1.357334 0.970139,-1.565653 0.533576,-0.131731 1.555319,-0.542378 2.270545,-0.912551 1.300405,-0.673044 1.300405,-0.673044 5.437127,3.584172 2.275195,2.341475 4.349077,4.257225 4.608622,4.257225 0.352291,0 0.4719,-0.67419 0.4719,-2.65989 0,-4.094751 1.552547,-6.511116 3.510288,-5.463363 0.393093,0.210376 0.786645,0.735108 0.874557,1.166068 0.8059,3.950665 1.054813,6.414995 1.067922,10.572825 0.0084,2.66771 0.127659,4.85052 0.265003,4.8507 0.762942,0.001 2.260515,-3.7101 3.283306,-8.13626 1.164093,-5.037639 1.702524,-6.280324 3.124962,-7.212342 1.869098,-1.224678 2.723724,0.324376 2.3498,4.259142 -0.146321,1.53973 -0.288244,2.29294 -0.315383,1.6738 -0.02713,-0.61914 -0.220634,-1.23157 -0.429994,-1.36097 -0.240277,-0.14849 -0.296333,-0.8483 -0.152008,-1.897662 0.170183,-1.237375 0.09812,-1.770733 -0.281824,-2.086067 -0.41541,-0.344755 -0.709281,-0.197213 -1.578095,0.792311 -0.587195,0.668778 -1.168241,1.743688 -1.291212,2.388698 -0.863456,4.52893 -2.186665,9.45331 -2.779755,10.34495 -0.947113,1.42389 -2.770696,3.35139 -3.1707,3.35139 -0.329565,0 -0.25823,-0.52601 0.511736,-3.77344 0.56286,-2.37393 -0.03668,-9.70151 -0.869026,-10.62124 -0.298471,-0.329811 -0.593414,-1.312371 -0.655429,-2.183471 -0.0839,-1.178454 -0.272101,-1.61405 -0.735337,-1.701931 -1.087113,-0.206233 -2.006516,2.464944 -2.015508,5.855732 -0.01094,4.12801 -0.297381,4.11949 -4.756207,-0.14151 -2.006046,-1.91704 -4.19294,-3.91503 -4.859764,-4.439978 -1.212406,-0.954447 -1.212406,-0.954447 -2.681256,-0.227718 -1.1903,0.588914 -1.468854,0.91046 -1.468854,1.695556 0,1.31969 -0.643526,3.06547 -1.806663,4.90118 -0.534592,0.84371 -1.143487,2.33371 -1.353104,3.31112 -0.411452,1.91855 -1.989723,6.70921 -2.587163,7.85305 -0.202163,0.38705 -1.259928,1.89518 -2.35059,3.35138 -2.765224,3.69203 -3.896924,5.42911 -3.896924,5.98152 0,0.26055 -0.48356,1.9833 -1.074579,3.82833 -0.591016,1.84504 -1.106953,4.16333 -1.146528,5.15177 -0.07195,1.79715 -0.07195,1.79715 6.565558,1.89321 6.637507,0.0961 6.637507,0.0961 8.016173,-1.08402 3.459431,-2.96115 12.12196,-6.27486 19.110008,-7.31023 2.465719,-0.36533 4.959484,-0.91057 5.541695,-1.21164 1.396005,-0.7219 6.732118,-7.08805 6.732118,-8.03163 0,-0.40501 0.396875,-1.25672 0.881945,-1.89268 2.524128,-3.3093 -1.041411,-2.92089 -3.89974,0.42483 -1.964503,2.29947 -5.365404,4.69538 -7.053852,4.96937 -1.776832,0.28834 -1.563045,-0.31075 1.092458,-3.06137 2.634093,-2.72845 2.791689,-3.13523 3.693393,-9.53341 0.35028,-2.48546 0.638534,-3.76164 0.660576,-2.92455 0.0609,2.31277 -1.034242,8.60978 -1.735688,9.9801 -0.34762,0.6791 -1.133394,1.79035 -1.746169,2.46945 -0.838771,0.92955 -0.982465,1.26191 -0.581392,1.34475 1.037312,0.21425 3.714278,-1.83953 4.978746,-3.81972 0.973148,-1.52397 3.909395,-3.02016 5.261187,-2.68088 1.363754,0.34228 1.591822,1.77769 0.472525,2.97394 -0.487437,0.52096 -1.181926,1.52551 -1.543311,2.23236 -1.085547,2.12325 -6.023928,7.65891 -7.313059,8.19754 -0.64648,0.27012 -2.985224,0.74145 -5.197211,1.0474 -6.832498,0.94505 -14.406002,3.77137 -18.779773,7.00832 -2.139766,1.5836 -3.050861,1.73444 -9.71188,1.60786 -3.593839,-0.0683 -5.27079,-0.23747 -5.76772,-0.58184 z m 18.919914,-18.37708 c -0.403881,-0.16339 -1.176849,-0.82297 -1.71771,-1.46575 -0.897132,-1.06618 -0.966939,-1.35001 -0.795902,-3.23622 0.179687,-1.98164 0.409786,-2.67449 0.768935,-2.31534 0.09175,0.0918 0.0028,0.76121 -0.19788,1.48769 -0.460713,1.66857 0.07878,3.46358 1.338887,4.45478 1.193497,0.93881 1.728932,0.89859 3.435703,-0.25807 1.878418,-1.27299 1.892018,-1.29865 1.700146,-3.20889 -0.191605,-1.90757 -0.95848,-3.56681 -2.707626,-5.85832 -0.686714,-0.89964 -1.408476,-1.90669 -1.603915,-2.23787 -0.310822,-0.52672 -0.399676,-0.53586 -0.709175,-0.073 -0.303527,0.45394 -0.354598,0.4414 -0.359234,-0.0882 -0.01062,-1.21209 1.284545,-0.64126 2.401225,1.05833 0.605536,0.92163 1.502558,2.26762 1.993378,2.99108 0.729269,1.07493 1.523213,4.22545 1.59023,6.31034 0.01326,0.41308 -3.285596,2.78115 -3.843267,2.75886 -0.307707,-0.0123 -0.889914,-0.15604 -1.293795,-0.31943 z m -66.816416,-6.34605 c -2.54881,-0.87977 -4.68211,-3.10198 -5.44543,-5.67237 -0.64277,-2.16442 -0.73452,-5.70077 -0.17505,-6.746163 0.76294,-1.425557 3.31532,-2.163939 8.08372,-2.338557 5.07945,-0.186005 8.026343,0.285397 9.449205,1.51154 0.924712,0.796869 0.956896,0.944958 0.933235,4.29394 -0.04013,5.67981 -1.138509,8.01233 -4.27651,9.08155 -2.23327,0.76095 -6.16068,0.7014 -8.56917,-0.12994 z m 0.61116,-5.9295 c 0.59579,-0.77051 0.55742,-3.0675 -0.0716,-4.28382 -0.55534,-1.073915 -2.3237,-2.001544 -3.1853,-1.67092 -0.31042,0.119122 -0.5355,0.640475 -0.5355,1.24039 0,0.83271 -0.20677,1.10697 -1.05834,1.40383 -0.81244,0.28322 -1.05833,0.5835 -1.05833,1.29242 0,0.91441 0.56484,2.30061 1.07614,2.641 0.62546,0.41638 4.40605,-0.0709 4.83289,-0.6229 z m -30.42709,5.7534 c -3.11289,-1.13594 -4.40972,-3.84809 -4.40972,-9.22233 0,-5.242751 1.09518,-5.916507 9.30021,-5.721555 4.91248,0.11672 5.92418,0.240478 7.38046,0.902811 2.17295,0.988293 2.90676,2.521578 2.57159,5.373344 -0.43845,3.73055 -2.4903,6.90701 -5.38088,8.33013 -1.78691,0.87975 -7.42472,1.08091 -9.46166,0.3376 z m 11.48183,-6.40876 c 0.45054,-1.18501 0.0967,-3.0687 -0.78754,-4.19287 -0.49653,-0.631227 -1.03203,-0.878874 -1.90045,-0.878874 -1.10595,0 -1.20911,0.08952 -1.20911,1.049274 0,0.80906 -0.24229,1.17457 -1.05834,1.59656 -1.13168,0.58522 -1.25776,1.01703 -0.71428,2.44648 0.3244,0.85325 0.48602,0.90491 2.83095,0.90491 2.35929,0 2.50496,-0.0475 2.83877,-0.92548 z m -14.52217,-3.2832 c 0.0369,-1.38226 0.23142,-1.739486 1.6833,-3.091539 0.90285,-0.840782 1.54525,-1.625004 1.42754,-1.742719 -0.37006,-0.370056 -1.93779,0.194554 -2.94442,1.060426 -0.83287,0.716407 -0.98775,1.155573 -1.1156,3.163412 -0.0816,1.28234 -0.0251,2.77216 0.12568,3.31073 0.27414,0.9792 0.27414,0.9792 0.52795,-0.0791 0.13959,-0.58208 0.27259,-1.76161 0.29555,-2.62118 z m 93.404587,-29.304153 c -0.192924,-0.96461 -0.298986,-1.028894 -1.365868,-0.827796 -0.636188,0.119916 -1.428168,0.45322 -1.759959,0.740681 -0.612595,0.530748 -3.100913,0.360758 -3.100913,-0.211836 0,-0.146258 -0.515937,-0.453471 -1.146528,-0.682692 -0.63059,-0.22922 -2.70746,-1.873754 -4.615268,-3.65452 -3.673747,-3.429102 -4.963516,-5.464097 -5.558674,-8.770451 -0.157166,-0.873125 -0.466704,-2.54 -0.68786,-3.704167 -0.800583,-4.214282 0.186263,-10.704403 1.994556,-13.117434 0.462852,-0.617645 0.841552,-1.300216 0.841552,-1.516825 0,-0.949262 1.155167,-2.465179 2.88932,-3.791639 1.030249,-0.788039 2.55772,-2.081056 3.394386,-2.87337 0.932942,-0.883493 2.183098,-1.637133 3.232817,-1.948867 0.941387,-0.279562 2.082472,-0.748963 2.535742,-1.043113 0.981103,-0.636691 8.403294,-1.728334 9.962198,-1.465224 0.600865,0.101414 2.074061,0.251894 3.27377,0.3344 3.39356,0.233382 10.342323,2.75428 10.342323,3.752025 0,0.16988 0.515938,0.574166 1.146528,0.898414 1.572475,0.808563 5.062104,4.232825 5.574655,5.47023 0.230984,0.557647 0.608615,1.013903 0.839177,1.013903 0.230565,0 0.59762,0.912813 0.815682,2.028472 0.218063,1.11566 0.629197,3.219098 0.913628,4.674306 0.777656,3.978628 0.430939,10.04527 -0.751022,13.140973 -0.500048,1.309687 -1.036317,2.38125 -1.191712,2.38125 -0.155391,0 -0.688625,0.643297 -1.184966,1.42955 -2.738353,4.337837 -8.549143,8.302379 -12.742669,8.693976 -1.760506,0.164398 -2.263387,0.100521 -2.419918,-0.307393 -0.108673,-0.283199 0.204332,-2.568 0.695576,-5.077329 0.491239,-2.50933 0.992769,-5.530314 1.114513,-6.713298 0.19673,-1.911692 0.13632,-2.230099 -0.543225,-2.863194 -1.725817,-1.607841 -12.422961,-1.21896 -13.697497,0.497956 -0.242535,0.326715 -0.438295,1.000249 -0.435021,1.496741 0.0053,0.795151 1.646502,9.214401 2.283181,11.712145 0.130616,0.512406 0.0852,1.025769 -0.10093,1.140799 -0.186125,0.115034 -0.432533,-0.261468 -0.547574,-0.836673 z m -5.270003,-13.326265 c 0.429193,-0.335234 1.503338,-2.038266 2.38699,-3.784516 2.34424,-4.632628 3.702625,-6.715693 6.441391,-9.877778 3.713434,-4.287401 3.969886,-5.036914 2.121133,-6.199285 -1.003004,-0.630621 -1.496731,-0.692486 -3.944063,-0.494198 -3.414388,0.276641 -5.419408,1.410821 -8.230574,4.655792 -2.570836,2.967553 -3.020424,4.335265 -3.054752,9.293002 -0.02692,3.888255 0.01764,4.149784 0.946894,5.556252 1.080079,1.634762 2.021551,1.875071 3.332981,0.850731 z m 6.915422,13.953314 c -0.190278,-0.248444 -0.846483,-3.204785 -1.458235,-6.569647 -0.823948,-4.532006 -1.017535,-6.294963 -0.746792,-6.800854 0.405229,-0.75717 1.195179,-0.52941 0.893205,0.257528 -0.302073,0.787192 0.384235,2.171538 1.205847,2.432308 0.490182,0.155578 0.987828,0.02409 1.432755,-0.378563 0.57187,-0.517535 0.830555,-0.549116 1.605548,-0.196006 0.758754,0.345711 1.079038,0.319246 1.792287,-0.148093 0.804118,-0.526877 0.918602,-0.523635 1.545601,0.04379 0.555551,0.502765 0.835289,0.540773 1.557669,0.211632 0.726352,-0.330948 0.880512,-0.649566 0.880512,-1.819861 0,-1.175022 0.119045,-1.418675 0.693145,-1.418675 1.392922,0 1.461308,1.020325 0.500235,7.46341 -0.501964,3.365193 -1.032464,6.35666 -1.178891,6.647702 -0.362628,0.720774 -8.192453,0.967913 -8.722886,0.275329 z m 8.355619,-0.740036 c 0,-0.307478 -0.939757,-0.393097 -3.439583,-0.313373 -1.891771,0.06033 -3.717396,0.111196 -4.056945,0.113034 -0.339548,0.0018 -0.617361,0.146854 -0.617361,0.322259 0,0.289493 7.225768,0.667074 7.849306,0.41016 0.145521,-0.05996 0.264583,-0.299392 0.264583,-0.53208 z"
         id="path4186" />
      <path
         style="fill:#e5b48e;stroke-width:0.352778"
         d="m -129.07892,155.27279 c -1.37747,-1.74625 -2.63408,-3.175 -2.79246,-3.175 -0.57623,0 -1.35156,-2.60811 -1.02818,-3.45867 0.75196,-1.9778 0.49131,-2.35984 -3.12759,-4.58417 -3.58265,-2.20205 -6.55569,-5.03889 -8.24674,-7.86895 -1.15839,-1.93861 -1.34393,-4.03381 -1.42744,-16.11923 -0.0395,-5.72222 -0.19788,-9.10785 -0.44131,-9.4363 -0.20881,-0.28172 -1.07855,-0.71339 -1.93275,-0.95925 -2.13267,-0.61385 -3.61851,-2.47228 -3.79254,-4.74357 -0.18432,-2.40565 0.79806,-4.92578 2.34703,-6.020872 1.23472,-0.872924 1.23472,-0.872924 0.24416,0.05413 -0.97156,0.909274 -1.01146,1.631332 -0.0902,1.631332 0.25583,0 0.65944,0.23411 0.89691,0.52024 0.347,0.41811 0.28011,0.83352 -0.3407,2.11596 -1.22575,2.53205 -0.46686,5.18533 1.58283,5.53404 0.58611,0.0997 0.73542,-0.11885 0.88195,-1.29108 0.17638,-1.41111 0.17638,-1.41111 1.18504,0.64305 1.60995,3.27872 3.92619,4.62626 8.69273,5.05724 6.3143,0.57093 11.97828,-3.2442 13.19749,-8.88953 0.38867,-1.79964 1.51341,-3.33714 2.44126,-3.33714 1.18296,0 1.80145,0.868 2.72085,3.81848 1.51424,4.85936 3.79595,7.24601 8.20886,8.58639 4.83385,1.46824 10.617678,0.22323 12.761342,-2.74698 0.542873,-0.75219 1.480439,-1.68707 2.083481,-2.0775 1.467129,-0.94989 2.012019,-3.38163 1.1465,-5.11661 -0.804386,-1.61242 -0.724641,-2.41265 0.286321,-2.87328 0.476049,-0.2169 0.920147,-0.650063 0.986889,-0.962578 0.06674,-0.312515 0.486527,0.384292 0.932861,1.548458 0.629737,1.64253 0.769179,2.5513 0.622505,4.05695 -0.165689,1.70085 -0.359188,2.09265 -1.568076,3.17506 -0.758487,0.67913 -1.914374,1.39351 -2.568639,1.5875 -0.978503,0.29013 -1.231057,0.5718 -1.42336,1.58744 -0.128584,0.6791 -0.33129,6.15244 -0.450458,12.16299 -0.216673,10.92826 -0.216673,10.92826 -1.188219,12.8508 -1.845017,3.65101 -7.298327,8.37367 -12.979477,11.24047 -2.00447,1.01149 -2.16577,1.18794 -2.73403,2.99064 -0.33213,1.05365 -0.60387,2.18747 -0.60387,2.5196 0,0.33213 -0.22739,1.04358 -0.50529,1.581 -0.45358,0.87712 -1.01016,1.11001 -5.43809,2.27554 -2.71304,0.71412 -5.18082,1.2984 -5.48396,1.2984 -0.30314,0 -1.6782,-1.42875 -3.05568,-3.175 z m 12.57543,-3.73006 c 2.21555,-1.11676 3.02221,-1.9992 2.39807,-2.62334 -0.26561,-0.26561 -0.6765,-0.25994 -1.40318,0.0193 -1.49959,0.57633 -4.71154,1.13548 -6.19861,1.07908 -0.70976,-0.0269 -2.52194,-0.36391 -4.02707,-0.74886 -1.50512,-0.38494 -2.80648,-0.63001 -2.8919,-0.54459 -0.1679,0.16791 4.4823,3.22855 5.70228,3.75309 1.34167,0.57688 4.26622,0.1511 6.42041,-0.93473 z m -2.20087,-6.66003 c 0.5134,-0.47581 0.93346,-1.11081 0.93346,-1.41112 0,-0.69775 -1.35279,-0.7011 -2.27229,-0.006 -0.37663,0.28487 -1.05132,0.51795 -1.49931,0.51795 -1.17694,0 -1.00022,0.6589 0.33201,1.23794 1.49872,0.65141 1.42679,0.66114 2.50613,-0.33915 z m 0.72344,-4.24992 c 1.438,-1.33269 2.09023,-3.20024 2.06299,-5.90702 -0.0298,-2.95887 -1.02223,-5.20557 -2.7791,-6.29139 -1.19851,-0.74071 -1.26806,-0.74449 -2.81634,-0.1532 -2.35273,0.89852 -3.44392,2.72477 -3.61155,6.04446 -0.10726,2.12394 0.009,2.86327 0.66151,4.21143 1.40073,2.89352 4.53004,3.9052 6.48249,2.09572 z m -1.08377,-16.36236 c 0.54959,-0.36235 0.94647,-0.79787 0.88194,-0.96781 -0.0645,-0.16994 -1.40794,-0.31195 -2.98535,-0.31558 -3.16028,-0.007 -3.54801,0.41866 -1.24964,1.37275 1.70573,0.70809 2.16199,0.69593 3.35305,-0.0894 z m 57.154858,10.7036 c -0.279358,-0.72799 0.411921,-4.12077 1.478594,-7.25692 0.477767,-1.4047 0.86867,-2.79547 0.86867,-3.09061 0,-0.61289 1.058266,-2.25433 3.896924,-6.04441 1.090662,-1.4562 2.148427,-2.96433 2.35059,-3.35138 0.59744,-1.14384 2.175711,-5.9345 2.587163,-7.85305 0.209617,-0.97741 0.818512,-2.46741 1.353104,-3.31112 1.163137,-1.83571 1.806663,-3.58149 1.806663,-4.90118 0,-0.785096 0.278554,-1.106642 1.468854,-1.695556 1.46885,-0.726729 1.46885,-0.726729 2.681256,0.227718 0.666824,0.524948 2.853718,2.522938 4.859764,4.439978 4.458826,4.261 4.74526,4.26952 4.756207,0.14151 0.009,-3.390788 0.928395,-6.061965 2.015508,-5.855732 0.463236,0.08788 0.651439,0.523477 0.735337,1.701931 0.06201,0.8711 0.356958,1.85366 0.655429,2.183471 0.832348,0.91973 1.431886,8.24731 0.869026,10.62124 -0.769966,3.24743 -0.841301,3.77344 -0.511736,3.77344 0.400004,0 2.223587,-1.9275 3.1707,-3.35139 0.59309,-0.89164 1.916299,-5.81602 2.779755,-10.34495 0.122971,-0.64501 0.704017,-1.71992 1.291212,-2.388698 0.87449,-0.995991 1.160964,-1.138499 1.583574,-0.78776 0.382041,0.317066 0.455951,0.828287 0.28478,1.969742 -0.150418,1.003046 -0.08246,1.720726 0.194543,2.054496 0.33402,0.40247 0.294199,1.55639 -0.184912,5.35783 -0.958907,7.60832 -1.176719,8.22837 -3.870682,11.01884 -2.663218,2.75861 -2.878053,3.35795 -1.100261,3.06945 1.688448,-0.27399 5.089349,-2.6699 7.053852,-4.96937 2.858329,-3.34572 6.423868,-3.73413 3.89974,-0.42483 -0.48507,0.63596 -0.881945,1.48767 -0.881945,1.89268 0,0.94358 -5.336113,7.30973 -6.732118,8.03163 -0.582211,0.30107 -3.075976,0.84631 -5.541695,1.21164 -6.979486,1.0341 -15.650641,4.34914 -19.100818,7.30236 -1.369473,1.17222 -1.369473,1.17222 -7.939049,1.17222 -5.5897,0 -6.600666,-0.081 -6.778029,-0.54322 z m 13.705124,-0.46881 c 0.514633,-0.73474 4.825362,-3.56549 5.437597,-3.57073 0.215209,-0.002 1.564584,-0.54416 2.998611,-1.20514 1.434028,-0.66099 3.517198,-1.46515 4.629274,-1.78703 1.112072,-0.32188 2.113629,-0.73357 2.225679,-0.91488 0.112052,-0.1813 0.809924,-0.32964 1.550825,-0.32964 0.767048,0 1.536199,-0.22785 1.786265,-0.52916 0.241544,-0.29104 0.667227,-0.52917 0.94596,-0.52917 0.278737,0 0.403391,-0.16731 0.277012,-0.37179 -0.275608,-0.44594 -4.355734,-0.10243 -4.984835,0.41967 -0.230505,0.19131 -1.343695,0.41721 -2.473756,0.50201 -1.305785,0.098 -2.202645,0.35448 -2.460681,0.70372 -0.272292,0.36854 -0.841019,0.51403 -1.726717,0.44171 -0.823207,-0.0672 -1.378994,0.0583 -1.475461,0.33315 -0.09906,0.28226 0.188789,0.44098 0.799775,0.44098 0.808479,0 0.887339,0.081 0.51537,0.52916 -0.496126,0.5978 -1.411111,0.71217 -1.411111,0.17639 0,-0.82417 -2.969162,0.11136 -4.187959,1.31955 -0.584469,0.57938 -1.67373,0.4105 -1.530255,-0.23725 0.05961,-0.26913 -0.10165,-0.38491 -0.384768,-0.27627 -0.268065,0.10286 -0.705795,0.052 -0.972735,-0.11293 -0.484442,-0.29941 -1.39095,0.17842 -1.39095,0.73318 0,0.15485 0.47625,0.38615 1.058333,0.514 1.755835,0.38564 1.114933,1.94028 -0.799885,1.94028 -0.836199,0 -0.974365,-0.11716 -0.797038,-0.67587 0.278995,-0.87903 -0.311171,-1.23524 -0.890337,-0.53739 -0.410552,0.49469 -0.857631,3.61741 -0.461137,3.22091 0.09395,-0.0939 0.597331,-0.0421 1.118631,0.11517 1.523682,0.45972 2.112853,0.389 2.604293,-0.31263 z m 23.793257,-8.68749 c 2.014082,-0.5246 4.007217,-1.96614 4.007217,-2.89823 0,-0.52824 -1.281144,0.14976 -2.762917,1.46218 -0.658209,0.58299 -1.194929,0.70511 -2.685189,0.611 -1.642244,-0.1037 -1.885283,-0.0307 -2.054751,0.61737 -0.23955,0.91604 0.587428,0.96517 3.49564,0.20768 z m -1.170316,-7.52397 c 2.743412,-2.7596 2.743412,-2.7596 3.228824,-5.55625 0.80083,-4.61391 1.396322,-9.99302 1.135186,-10.25415 -0.457931,-0.45794 -0.620187,0.12798 -1.099545,3.9706 -0.470595,3.77236 -1.506792,7.53343 -2.573821,9.34215 -0.297328,0.50401 -1.552536,1.577 -2.789354,2.38444 -2.1619,1.41136 -2.744128,2.26135 -1.807785,2.63917 0.915148,0.36927 1.231776,0.16454 3.906495,-2.52596 z m -19.5182,0.36214 c 0.78243,-0.63358 0.78243,-0.63358 -0.168666,-1.76389 -1.216865,-1.44616 -1.593935,-1.42639 -1.593935,0.0836 0,0.66765 -0.15875,1.31202 -0.352778,1.43194 -0.638803,0.3948 -0.368106,0.88194 0.490086,0.88194 0.463571,0 1.194954,-0.28511 1.625293,-0.63357 z m 5.411449,-2.41223 c 0.904967,-0.70506 1.642251,-1.37974 1.638406,-1.49931 -0.06702,-2.08489 -0.860961,-5.23541 -1.59023,-6.31034 -0.49082,-0.72346 -1.387842,-2.06945 -1.993378,-2.99108 -0.695177,-1.05806 -1.356763,-1.67569 -1.794948,-1.67569 -0.509859,0 -0.647128,0.17911 -0.517419,0.67513 0.119595,0.45732 -0.03785,0.73119 -0.488019,0.84891 -0.694415,0.1816 -0.921339,1.45063 -0.325275,1.81901 0.216087,0.13356 0.210859,0.54753 -0.01439,1.13999 -0.194536,0.51167 -0.276762,1.13079 -0.182729,1.37583 0.09403,0.24505 0.0093,0.49943 -0.188238,0.56528 -0.197567,0.0658 -0.445682,1.07334 -0.551364,2.23885 -0.176353,1.94485 -0.111287,2.21522 0.791224,3.28779 1.805411,2.14561 2.984543,2.26442 5.216367,0.52563 z m 3.707218,-1.78647 c -0.260879,-0.31636 -0.48213,-1.14446 -0.491677,-1.84022 -0.05535,-4.03492 -0.114617,-4.27145 -1.227229,-4.89739 -0.587505,-0.33052 -1.167162,-0.99783 -1.288122,-1.4829 -0.259426,-1.0403 -1.83521,-3.42292 -2.894288,-4.3762 -0.41064,-0.36962 -0.746619,-0.80406 -0.746619,-0.96543 0,-0.3515 -1.86455,-3.092512 -2.116666,-3.11164 -0.09701,-0.0074 -0.175514,1.216928 -0.174445,2.72064 0.0021,2.73402 0.0021,2.73402 1.314192,2.91041 1.075789,0.1446 1.503811,0.46245 2.375334,1.76389 0.584697,0.87312 1.54112,2.20641 2.125391,2.96286 0.783548,1.01446 1.062821,1.75504 1.064274,2.82223 0.0032,2.2401 0.638898,4.09081 1.519301,4.42205 0.926698,0.34867 1.202701,-0.12531 0.540554,-0.9283 z m 5.827632,-3.12439 c 0.550429,-1.61543 0.443294,-6.33136 -0.135707,-5.97351 -0.143002,0.0884 -0.179807,0.87218 -0.08179,1.74177 0.109414,0.97073 -0.04325,2.25818 -0.395485,3.33506 -0.315532,0.96468 -0.573694,2.01132 -0.573694,2.32586 0,0.98641 0.616655,0.24373 1.186676,-1.42918 z m -84.071652,-5.80167 c -0.5113,-0.34039 -1.07614,-1.72659 -1.07614,-2.641 0,-0.70892 0.24589,-1.0092 1.05833,-1.29242 0.85157,-0.29686 1.05834,-0.57112 1.05834,-1.40383 0,-1.266154 0.70587,-1.597123 2.13964,-1.003239 1.30368,0.540004 2.09369,1.968609 2.09369,3.786099 0,2.00024 -0.54349,2.483 -2.94543,2.61628 -1.13491,0.063 -2.18271,0.0351 -2.32843,-0.0619 z m 4.70695,-0.9108 c 0.11778,-0.30691 0.21413,-1.19225 0.21413,-1.96742 0,-1.0953 -0.23561,-1.645 -1.05726,-2.46666 -1.288,-1.287995 -2.22275,-1.200774 -2.47068,0.23053 -0.12032,0.69462 -0.50976,1.20775 -1.14924,1.51425 -1.02427,0.49092 -1.23396,1.38426 -0.60207,2.56495 0.30226,0.5648 0.75165,0.68237 2.60809,0.68237 1.7198,0 2.29284,-0.13014 2.45703,-0.55802 z m -17.42476,-10.204974 c -2.61937,-0.475047 -5.79437,-0.880318 -7.05555,-0.900603 -2.29306,-0.03688 -2.29306,-0.03688 -0.42468,-0.920147 1.04913,-0.495973 2.88901,-0.985809 4.19604,-1.117123 1.55198,-0.155925 2.44556,-0.421393 2.68148,-0.796615 0.46916,-0.746188 0.0574,-2.275625 -0.85954,-3.192554 -1.52063,-1.520631 -6.22501,0.0798 -8.32407,2.83186 -0.63239,0.829109 -1.14979,1.871553 -1.14979,2.316544 0,0.773401 -0.1568,0.82019 -3.55628,1.061201 -1.95595,0.13867 -3.63608,0.172328 -3.73361,0.0748 -0.24553,-0.245536 0.83926,-9.273402 1.3165,-10.956212 0.38898,-1.371569 0.38898,-1.371569 2.9166,-1.172404 1.3902,0.109537 4.43825,0.752972 6.77345,1.42985 5.46737,1.584759 9.2003,2.348841 11.47534,2.348841 1.53815,0 1.92722,0.141153 2.54148,0.922062 0.76303,0.970037 1.16979,0.99319 4.8443,0.275724 1.23472,-0.241088 1.23472,-0.241088 0.41865,0.649976 -0.64182,0.7008 -0.79247,1.216423 -0.70555,2.414806 0.11051,1.523739 0.11051,1.523739 3.10912,2.124396 1.64924,0.330362 3.54787,0.837865 4.21918,1.127781 1.22058,0.527128 1.22058,0.527128 -1.23472,0.771755 -1.35041,0.134545 -3.72529,0.454501 -5.27751,0.711016 -5.49904,0.908752 -7.13641,0.908085 -12.17084,-0.0049 z m 24.57497,-0.435434 c -2.00254,-0.103032 -2.37695,-0.216866 -2.20312,-0.669847 0.23708,-0.61782 -0.832,-3.101516 -1.81647,-4.220041 -0.80297,-0.912308 -2.52774,-1.732551 -4.85676,-2.309713 -1.76389,-0.437113 -1.76389,-0.437113 -0.52917,-0.742767 3.49317,-0.864722 9.84292,-2.011652 11.17987,-2.019371 0.619142,-0.0036 1.222646,0.150344 1.341123,0.34204 0.484709,0.784281 1.193267,4.239821 1.429519,6.971598 0.251703,2.910416 0.251703,2.910416 -0.940375,2.841321 -0.655645,-0.038 -2.277727,-0.12495 -3.604617,-0.19322 z m 53.953045,-22.05088 c -0.563989,-0.876952 -2.69711,-10.929468 -2.652935,-12.50219 0.01531,-0.545356 0.110727,-0.784709 0.21202,-0.531891 0.138356,0.345328 0.311774,0.301453 0.697166,-0.176388 0.475139,-0.589118 0.485722,-0.579561 0.143422,0.129518 -0.279277,0.578524 -0.107689,2.216235 0.702261,6.702778 0.589505,3.26546 1.224654,6.215014 1.411435,6.554562 0.493459,0.897058 0.08723,0.757481 -0.513369,-0.176389 z m 9.581649,-0.694471 c 0.08197,-0.636686 0.531898,-3.588173 0.999826,-6.558862 0.649439,-4.123009 0.758733,-5.57324 0.461842,-6.12799 -0.28206,-0.527029 -0.282324,-0.660845 -0.0011,-0.486957 0.213385,0.131879 0.3928,0.03196 0.398702,-0.22201 0.0061,-0.265053 0.174851,-0.179247 0.395962,0.201408 0.236262,0.406742 0.296837,1.429893 0.156647,2.645833 -0.344265,2.986003 -1.968694,11.113823 -2.284286,11.429415 -0.152227,0.152227 -0.209701,-0.244151 -0.127726,-0.880837 z m -2.691179,-10.274099 c -0.216101,-0.260385 -0.275227,-0.609216 -0.131389,-0.775173 0.143835,-0.165957 -0.158259,-0.03962 -0.671329,0.280741 -0.872253,0.544646 -0.923879,0.54344 -0.794759,-0.01859 0.07595,-0.330581 -0.1094,-0.918559 -0.411882,-1.306615 -0.509958,-0.654229 -0.582076,-0.662301 -0.991362,-0.110973 -0.611434,0.823638 -2.019649,0.103159 -2.370529,-1.212822 -0.221643,-0.831278 -0.138518,-1.001229 0.577631,-1.180969 0.46009,-0.115478 1.279906,-0.03394 1.821808,0.181176 0.765172,0.303759 0.801734,0.356605 0.163661,0.236573 -0.621609,-0.116936 -0.771895,-0.02498 -0.617361,0.377719 0.112338,0.292753 0.204255,0.644028 0.204255,0.780609 0,0.136581 0.3175,0.248331 0.705555,0.248331 0.649757,0 0.843256,-0.368586 0.80033,-1.524505 -0.01023,-0.275928 0.464075,-0.43895 1.26734,-0.435571 0.706046,0.0028 1.124969,0.122033 0.930941,0.264583 -0.194027,0.142551 -0.384411,0.708498 -0.423072,1.257664 -0.06279,0.891871 -0.0063,0.948372 0.529167,0.529167 0.517387,-0.40506 0.5438,-0.396865 0.192909,0.05985 -0.223601,0.291041 -0.461726,0.922129 -0.529166,1.402415 -0.09157,0.652127 0.05604,0.902585 0.58294,0.989104 0.517303,0.08494 0.580006,0.02978 0.235003,-0.206795 -0.379455,-0.260187 -0.358835,-0.365516 0.106518,-0.544089 0.33727,-0.129423 0.487507,-0.07652 0.361537,0.127293 -0.11854,0.191805 -0.04741,0.348739 0.158066,0.348739 0.205479,0 0.373598,-0.185209 0.373598,-0.411576 0,-0.226363 0.118812,-0.292759 0.26403,-0.147546 0.295211,0.295216 -0.872257,1.264677 -1.522981,1.264677 -0.230201,0 -0.595358,-0.213042 -0.811459,-0.473431 z"
         id="path4184" />
      <path
         style="fill:#d5a078;stroke-width:0.352778"
         d="m -157.94583,219.77233 c 0.023,-0.64676 0.17298,-1.65217 0.33338,-2.23426 0.20367,-0.73911 0.23255,-0.48692 0.0957,0.83613 -0.11818,1.14273 -0.062,1.84265 0.14156,1.76389 0.18561,-0.0718 2.5263,-2.51182 5.20152,-5.42224 2.67522,-2.91041 5.19066,-5.60916 5.58987,-5.99722 0.68536,-0.66621 0.69747,-0.66713 0.21727,-0.0165 -0.87355,1.18355 -10.95058,12.00467 -11.29455,12.12855 -0.17958,0.0647 -0.30773,-0.41157 -0.28477,-1.05833 z m 35.02193,-67.29487 c -1.21998,-0.52455 -5.87018,-3.58519 -5.70228,-3.75309 0.0854,-0.0854 1.38678,0.15964 2.8919,0.54458 1.50513,0.38495 3.31731,0.72194 4.02707,0.74886 1.48707,0.0564 4.69902,-0.50274 6.19861,-1.07908 0.72668,-0.27928 1.13757,-0.28495 1.40318,-0.0193 1.58939,1.58938 -6.14204,4.70884 -8.81848,3.55806 z m 1.71341,-7.25561 c -1.33223,-0.57905 -1.50895,-1.23794 -0.33201,-1.23794 0.44799,0 1.12268,-0.23308 1.49931,-0.51795 0.9195,-0.69548 2.27229,-0.69213 2.27229,0.006 0,0.51915 -1.62954,2.2916 -2.07999,2.2624 -0.11719,-0.008 -0.72901,-0.23805 -1.3596,-0.51213 z m -1.36295,-4.37979 c -0.60847,-0.37103 -1.45145,-1.39912 -1.88997,-2.305 -0.65264,-1.34816 -0.76877,-2.08749 -0.66151,-4.21143 0.16763,-3.31969 1.25882,-5.14594 3.61155,-6.04446 1.54828,-0.59129 1.61783,-0.58751 2.81634,0.1532 1.75687,1.08582 2.74931,3.33252 2.7791,6.29139 0.0534,5.30752 -3.15163,8.2529 -6.65551,6.1163 z m 3.70388,-0.60906 c 1.19429,-0.83651 2.14028,-3.18888 2.14924,-5.34445 0.0249,-5.99584 -4.78113,-8.329 -7.26452,-3.52666 -0.67686,1.30891 -0.75909,4.87409 -0.14872,6.4484 1.02713,2.64927 3.38876,3.73618 5.264,2.42271 z m 68.060559,-5.41516 c -0.5213,-0.15729 -1.024682,-0.20911 -1.118631,-0.11517 -0.396494,0.3965 0.05059,-2.72622 0.461137,-3.22091 0.579166,-0.69785 1.169332,-0.34164 0.890337,0.53739 -0.177327,0.55871 -0.03916,0.67587 0.797038,0.67587 1.914818,0 2.55572,-1.55464 0.799885,-1.94028 -0.582083,-0.12785 -1.058333,-0.35915 -1.058333,-0.514 0,-0.55476 0.906508,-1.03259 1.39095,-0.73318 0.26694,0.16497 0.70467,0.21579 0.972735,0.11293 0.283118,-0.10864 0.44438,0.007 0.384768,0.27627 -0.143475,0.64775 0.945786,0.81663 1.530255,0.23725 1.218797,-1.20819 4.187959,-2.14372 4.187959,-1.31955 0,0.53578 0.914985,0.42141 1.411111,-0.17639 0.371969,-0.4482 0.293109,-0.52916 -0.51537,-0.52916 -0.610986,0 -0.898835,-0.15872 -0.799775,-0.44098 0.09647,-0.27486 0.652254,-0.40035 1.475461,-0.33315 0.885698,0.0723 1.454425,-0.0732 1.726717,-0.44171 0.258036,-0.34924 1.154896,-0.60573 2.460681,-0.70372 1.130061,-0.0848 2.243251,-0.3107 2.473756,-0.50201 0.629101,-0.5221 4.709227,-0.86561 4.984835,-0.41967 0.126379,0.20448 0.0018,0.37179 -0.277012,0.37179 -0.278733,0 -0.704416,0.23813 -0.94596,0.52917 -0.250066,0.30131 -1.019217,0.52916 -1.786265,0.52916 -0.740901,0 -1.438773,0.14834 -1.550825,0.32964 -0.11205,0.18131 -1.113607,0.593 -2.225679,0.91488 -1.112076,0.32188 -3.195246,1.12604 -4.629274,1.78703 -1.434027,0.66098 -2.783402,1.2033 -2.998611,1.20514 -0.612235,0.005 -4.922964,2.83599 -5.437597,3.57073 -0.49144,0.70163 -1.080611,0.77235 -2.604293,0.31263 z m 22.90191,-9.2078 c 0.169468,-0.64805 0.412507,-0.72107 2.054751,-0.61737 1.49026,0.0941 2.02698,-0.028 2.685189,-0.611 1.481773,-1.31242 2.762917,-1.99042 2.762917,-1.46218 0,0.93209 -1.993135,2.37363 -4.007217,2.89823 -2.908212,0.75749 -3.73519,0.70836 -3.49564,-0.20768 z m -94.510649,-1.25026 c -2.29837,-0.95409 -1.91064,-1.38003 1.24964,-1.37275 1.57741,0.004 2.92082,0.14564 2.98535,0.31558 0.1488,0.3919 -1.70668,1.63187 -2.41038,1.61079 -0.29104,-0.009 -1.11211,-0.25784 -1.82461,-0.55362 z m 92.929478,-3.54007 c -0.936343,-0.37782 -0.354115,-1.22781 1.807785,-2.63917 1.236818,-0.80744 2.492026,-1.88043 2.789354,-2.38444 1.067029,-1.80872 2.103226,-5.56979 2.573821,-9.34215 0.479358,-3.84262 0.641614,-4.42854 1.099545,-3.9706 0.261136,0.26113 -0.334356,5.64024 -1.135186,10.25415 -0.485412,2.79665 -0.485412,2.79665 -3.228824,5.55625 -2.674719,2.6905 -2.991347,2.89523 -3.906495,2.52596 z m -18.079862,-1.86221 c 0,-0.18257 0.15875,-0.43007 0.352778,-0.54998 0.194028,-0.11992 0.352778,-0.76429 0.352778,-1.43194 0,-1.50997 0.37707,-1.52974 1.593935,-0.0836 0.951096,1.13031 0.951096,1.13031 0.168666,1.76389 -0.823344,0.6667 -2.468157,0.8677 -2.468157,0.30161 z m 11.04627,-3.57201 c -0.880403,-0.33124 -1.516256,-2.18195 -1.519301,-4.42205 -0.0014,-1.06719 -0.280726,-1.80777 -1.064274,-2.82223 -0.584271,-0.75645 -1.540694,-2.08974 -2.125391,-2.96286 -0.871523,-1.30144 -1.299545,-1.61929 -2.375334,-1.76389 -1.312245,-0.17639 -1.312245,-0.17639 -1.314192,-2.91041 -0.0011,-1.503712 0.07743,-2.728002 0.174445,-2.72064 0.252116,0.01912 2.116666,2.76014 2.116666,3.11164 0,0.16137 0.335979,0.59581 0.746619,0.96543 1.059078,0.95328 2.634862,3.3359 2.894288,4.3762 0.12096,0.48507 0.700617,1.15238 1.288122,1.4829 1.112612,0.62594 1.171882,0.86247 1.227229,4.89739 0.0096,0.69576 0.230798,1.52386 0.491677,1.84022 0.662147,0.80299 0.386144,1.27697 -0.540554,0.9283 z m -73.883246,-2.17897 c -4.16693,-1.46156 -6.23383,-3.7269 -7.70343,-8.44302 -0.9194,-2.95048 -1.53789,-3.81848 -2.72085,-3.81848 -0.92785,0 -2.05259,1.5375 -2.44126,3.33714 -1.21921,5.64533 -6.88319,9.46046 -13.19749,8.88953 -4.76654,-0.43098 -7.08278,-1.77852 -8.69273,-5.05724 -1.00866,-2.05416 -1.00866,-2.05416 -1.18504,-0.64305 -0.14653,1.17223 -0.29584,1.3908 -0.88195,1.29108 -2.04969,-0.34871 -2.80858,-3.00199 -1.58283,-5.53404 0.62081,-1.28244 0.6877,-1.69785 0.3407,-2.11596 -0.23747,-0.28613 -0.64108,-0.52024 -0.89691,-0.52024 -0.8822,0 -0.91641,-0.735696 -0.0653,-1.405145 0.65022,-0.511464 0.82872,-0.948989 0.7498,-1.837919 -0.057,-0.641664 -0.0124,-0.849161 0.0991,-0.461105 0.11144,0.388055 0.81922,1.276484 1.57283,1.974282 1.35805,1.257477 1.3702,1.292277 1.3702,3.924397 0,4.41807 1.25475,6.89698 4.36318,8.62001 1.69822,0.94134 2.06189,1.00311 5.86738,0.9967 3.7099,-0.006 4.21155,-0.0878 5.86435,-0.95344 2.68051,-1.40389 4.50195,-3.6773 5.60863,-7.00036 0.97401,-2.92469 2.04455,-4.2102 3.50615,-4.2102 1.18567,0 2.16662,1.34166 2.96799,4.05933 1.80759,6.13011 5.27818,8.6903 11.8626,8.75082 6.698266,0.0616 9.690926,-2.7898 10.257561,-9.77328 0.248694,-3.06499 0.274909,-3.13473 1.436074,-3.819832 1.016307,-0.599634 1.182755,-0.889057 1.182755,-2.056578 0,-0.921865 -0.198498,-1.47435 -0.617362,-1.718314 -0.339548,-0.197771 -0.450673,-0.364409 -0.246944,-0.370307 0.713426,-0.02067 1.217041,0.846885 1.212268,2.0883 -0.0074,1.918049 -0.327907,2.717471 -1.259805,3.142071 -0.997941,0.45469 -1.074568,1.26 -0.272824,2.86713 0.865519,1.73498 0.320629,4.16672 -1.1465,5.11661 -0.603042,0.39043 -1.540608,1.32531 -2.083481,2.0775 -2.209069,3.06083 -8.463692,4.2883 -13.266772,2.60361 z m 79.064755,-0.44454 c 0,-0.31454 0.258162,-1.36118 0.573694,-2.32586 0.352231,-1.07688 0.504899,-2.36433 0.395485,-3.33506 -0.09802,-0.86959 -0.06121,-1.65339 0.08179,-1.74177 0.579001,-0.35785 0.686136,4.35808 0.135707,5.97351 -0.570022,1.67291 -1.186677,2.41559 -1.186676,1.42918 z m -77.137065,-0.87348 c -4.72705,-1.00609 -7.71301,-4.62002 -8.10386,-9.80816 -0.22252,-2.953859 0.46353,-4.460149 2.51453,-5.520836 1.94827,-1.007561 11.08871,-1.270804 14.06656,-0.405119 2.933279,0.852727 3.396392,1.645285 3.393975,5.808345 -0.0032,5.35951 -1.004294,7.69144 -3.924835,9.14161 -1.84735,0.91729 -5.58702,1.28632 -7.94637,0.78416 z m 7.28706,-0.77821 c 1.539507,-0.57738 3.165714,-2.46492 3.713836,-4.31066 0.285725,-0.96213 0.5195,-3.1371 0.5195,-4.83325 0,-2.786213 -0.08633,-3.186496 -0.894352,-4.146775 -1.284269,-1.526268 -3.507754,-1.927031 -9.709454,-1.750039 -5.36669,0.153159 -6.45382,0.435335 -7.91786,2.055139 -0.55959,0.619125 -0.70168,1.262281 -0.68996,3.122925 0.036,5.7094 2.94206,9.36102 8.18079,10.2795 1.84269,0.32307 5.40751,0.10446 6.7975,-0.41684 z m -13.39314,-6.61431 c -0.63189,-1.18069 -0.4222,-2.07403 0.60207,-2.56495 0.63948,-0.3065 1.02892,-0.81963 1.14924,-1.51425 0.24793,-1.431304 1.18268,-1.518525 2.47068,-0.23053 0.82165,0.82166 1.05726,1.37136 1.05726,2.46666 0,2.37158 -0.16273,2.52544 -2.67116,2.52544 -1.85644,0 -2.30583,-0.11757 -2.60809,-0.68237 z m -23.77072,7.03571 c -2.28099,-0.41006 -4.27594,-1.78908 -5.2364,-3.61971 -0.64738,-1.23387 -0.81049,-2.21625 -0.92248,-5.55585 -0.12708,-3.789542 -0.0834,-4.123711 0.6623,-5.069837 0.43909,-0.557089 1.31835,-1.23016 1.95392,-1.495714 2.92982,-1.22416 12.10431,-0.885352 14.91974,0.550979 2.00516,1.022953 2.63108,2.389805 2.42061,5.285952 -0.22909,3.15247 -1.39372,5.69657 -3.45692,7.55156 -2.46938,2.22019 -6.26893,3.08462 -10.34077,2.35262 z m 7.97206,-1.13349 c 3.16432,-1.36126 5.12695,-4.55442 5.45355,-8.87283 0.18008,-2.381028 0.13322,-2.605955 -0.7655,-3.674018 -1.42678,-1.695634 -3.91577,-2.294647 -9.71569,-2.338229 -5.27127,-0.03961 -6.95479,0.334296 -8.10837,1.800839 -0.60133,0.764459 -0.71077,1.427515 -0.70911,4.295988 0.002,4.17999 0.40524,5.70558 1.96129,7.42794 2.23374,2.47248 7.81375,3.11121 11.88383,1.36031 z m -3.4024,-6.13065 c -0.42385,-1.10455 -0.19169,-1.74526 0.84643,-2.33599 0.72885,-0.41473 1.05611,-0.87287 1.05611,-1.47848 0,-1.192268 0.48643,-1.403381 1.73998,-0.755148 1.20242,0.621798 2.02533,2.722108 1.65095,4.213738 -0.21898,0.87247 -0.33931,0.9139 -2.65436,0.9139 -1.88583,0 -2.47259,-0.12406 -2.63911,-0.55802 z m 88.813446,2.4983 c -0.355523,-0.92647 0.158612,-1.5875 1.234722,-1.5875 1.151541,0 1.713385,0.85703 1.070039,1.63221 -0.537203,0.64729 -2.050482,0.61794 -2.304761,-0.0447 z M -148.45663,95.63571 c -0.003,-0.300743 0.17802,-0.730765 0.40286,-0.955608 0.30989,-0.309887 0.25196,-1.500675 -0.2394,-4.92125 -0.82044,-5.711388 -0.85065,-13.960398 -0.0605,-16.506893 0.86331,-2.782129 1.23588,-4.404321 1.61219,-7.019636 0.48091,-3.342291 2.11844,-6.50779 4.75849,-9.198649 2.26983,-2.313495 6.1007,-4.578371 7.09719,-4.195981 0.30822,0.118276 0.81249,0.702536 1.1206,1.298356 1.0538,2.037832 3.93077,4.700076 6.21442,5.75061 2.19511,1.009805 2.19511,1.009805 11.54373,1.207431 9.2566,0.195682 9.37827,0.208082 12.3628,1.259999 3.829774,1.349826 6.797965,3.303721 7.915448,5.210563 0.747208,1.275009 0.910481,2.194828 1.260962,7.103763 0.395334,5.537133 0.229263,13.518826 -0.368508,17.711318 -0.243272,1.706199 -0.195365,2.116021 0.293599,2.511563 0.531541,0.429983 0.520591,0.460964 -0.121249,0.343087 -0.80113,-0.14713 -0.78691,0.401066 -0.199627,-7.694923 0.458111,-6.315291 0.0014,-17.222055 -0.801465,-19.143808 -0.676861,-1.619952 -2.798819,-3.364191 -5.69458,-4.680917 -4.20342,-1.911322 -5.28342,-2.072058 -14.29461,-2.127493 -5.3965,-0.0332 -8.84371,-0.204848 -9.87579,-0.491759 -3.46907,-0.964371 -6.15658,-2.958292 -8.12782,-6.0302 -1.3856,-2.159271 -1.98888,-2.208463 -4.78405,-0.390087 -4.45927,2.900927 -7.30303,7.236979 -7.96086,12.138399 -0.18882,1.406797 -0.65082,3.510308 -1.02668,4.674475 -1.39851,4.331688 -1.47919,12.479737 -0.19561,19.755556 0.46608,2.6419 0.45561,2.889843 -0.16387,3.880556 -0.38382,0.613826 -0.66426,0.828671 -0.66771,0.511528 z m 21.33712,-0.706579 c -2.46976,-0.501481 -4.87473,-0.649369 -10.8271,-0.665787 -4.20865,-0.01161 -7.72754,-0.143168 -7.81974,-0.292354 -0.26533,-0.42932 0.77571,-9.613777 1.28882,-11.37042 0.46371,-1.5875 0.46371,-1.5875 3.26642,-1.562237 2.14852,0.01937 4.03784,0.367711 8.09437,1.492402 9.23911,2.561583 11.47948,2.58295 25.63659,0.244503 9.193114,-1.518504 9.371514,-1.523263 9.852431,-0.262862 0.203588,0.533576 0.461847,3.541385 0.573899,6.684014 0.203737,5.713878 0.203737,5.713878 -6.6407,5.510837 -5.39814,-0.160133 -7.59879,-0.08162 -10.41431,0.371542 -4.51071,0.726009 -8.94965,0.674955 -13.01068,-0.149638 z m 12.34722,-0.508822 c 1.55222,-0.256515 3.9271,-0.576471 5.27751,-0.711016 2.4553,-0.244627 2.4553,-0.244627 1.23472,-0.771755 -0.67131,-0.289916 -2.56994,-0.797419 -4.21918,-1.127781 -2.99861,-0.600657 -2.99861,-0.600657 -3.10912,-2.124396 -0.0869,-1.198383 0.0637,-1.714006 0.70555,-2.414806 0.81607,-0.891064 0.81607,-0.891064 -0.41865,-0.649976 -3.67451,0.717466 -4.08127,0.694313 -4.8443,-0.275724 -0.61426,-0.780909 -1.00333,-0.922062 -2.54148,-0.922062 -2.27504,0 -6.00797,-0.764082 -11.47534,-2.348841 -2.3352,-0.676878 -5.38325,-1.320313 -6.77345,-1.42985 -2.52762,-0.199165 -2.52762,-0.199165 -2.9166,1.172404 -0.47724,1.68281 -1.56203,10.710676 -1.3165,10.956212 0.0975,0.09753 1.77766,0.06387 3.73361,-0.0748 3.39948,-0.241011 3.55628,-0.2878 3.55628,-1.061201 0,-1.218657 2.09556,-3.719566 3.88381,-4.635077 0.87134,-0.446088 2.31934,-0.910294 3.21777,-1.031572 1.36727,-0.184566 1.75394,-0.100094 2.37228,0.518245 0.91693,0.916929 1.3287,2.446366 0.85954,3.192554 -0.23592,0.375222 -1.1295,0.64069 -2.68148,0.796615 -1.30703,0.131314 -3.14691,0.62115 -4.19604,1.117123 -1.86838,0.883268 -1.86838,0.883268 0.42468,0.920147 1.26118,0.02029 4.43618,0.425556 7.05555,0.900603 5.03443,0.913038 6.6718,0.913705 12.17084,0.0049 z m 16.949122,-3.088488 c -0.236252,-2.731777 -0.94481,-6.187317 -1.429519,-6.971598 -0.118477,-0.191696 -0.721981,-0.345617 -1.341123,-0.34204 -1.33695,0.0077 -7.6867,1.154649 -11.17987,2.019371 -1.23472,0.305654 -1.23472,0.305654 0.52917,0.742767 2.32902,0.577162 4.05379,1.397405 4.85676,2.309713 0.98447,1.118525 2.05355,3.602221 1.81647,4.220041 -0.17383,0.452981 0.20058,0.566815 2.20312,0.669847 1.32689,0.06827 2.948972,0.155219 3.604617,0.19322 1.192078,0.0691 1.192078,0.0691 0.940375,-2.841321 z m -36.663802,0.614006 c 1.2171,-0.486918 3.17424,-0.985781 4.34921,-1.10859 1.17496,-0.122809 2.15511,-0.399112 2.1781,-0.614006 0.37011,-3.459671 -4.16417,-3.59494 -7.53833,-0.224886 -1.46428,1.462497 -2.16025,2.832781 -1.43879,2.832781 0.1303,0 1.23271,-0.398385 2.44981,-0.885299 z m 29.06329,0.354961 c 0,-0.969722 -3.25742,-3.959613 -4.7625,-4.371357 -2.36474,-0.646921 -3.5491,-0.502793 -4.2146,0.512893 -1.02367,1.562322 -0.62904,2.030564 2.10078,2.492604 1.35663,0.22962 3.26035,0.741543 4.23049,1.137606 2.14353,0.875111 2.64583,0.918443 2.64583,0.228254 z m 59.972223,-4.031026 c -1.583845,-0.316699 -2.756549,-0.93806 -3.958551,-2.09745 -0.527964,-0.509249 -1.301006,-1.222697 -1.717862,-1.58544 -0.63651,-0.553879 -0.723999,-0.907087 -0.546118,-2.204861 0.116498,-0.84993 0.08158,-1.545329 -0.07759,-1.545329 -0.602637,0 -1.098374,-1.74383 -0.753558,-2.650762 0.27034,-0.711048 0.197866,-1.030055 -0.360977,-1.588897 -0.875908,-0.875909 -0.90297,-2.52216 -0.05409,-3.290387 0.397827,-0.360031 1.24981,-0.583844 2.2225,-0.583844 0.867547,0 1.749943,-0.172582 1.960876,-0.383515 0.276172,-0.276172 0.449863,-0.276172 0.620544,0 0.294237,0.476084 8.258556,0.51635 9.002998,0.04552 0.298852,-0.189014 0.6751,-0.196264 0.890902,-0.01718 0.205461,0.170519 1.162032,0.359876 2.125712,0.420794 1.498123,0.0947 1.817274,0.247247 2.201407,1.052216 0.349783,0.732991 0.357389,1.143102 0.03436,1.852083 -0.228202,0.500846 -0.557904,0.910625 -0.732678,0.910625 -0.174769,0 -0.216221,0.677147 -0.09211,1.504774 0.179984,1.200217 0.08261,1.68662 -0.48109,2.403249 -0.481923,0.61267 -0.604658,1.059808 -0.38583,1.405643 0.705231,1.114542 0.298429,1.967012 -1.834684,3.844657 -2.78814,2.454223 -4.958204,3.12915 -8.064154,2.508092 z m 5.038415,-0.890545 c 0.624356,-0.282162 1.987352,-1.290683 3.028879,-2.241165 1.89368,-1.728146 1.89368,-1.728146 1.435637,-2.994847 -0.429299,-1.187196 -0.404524,-1.310044 0.394687,-1.957208 0.811509,-0.657119 0.829293,-0.755343 0.367789,-2.031605 -0.454636,-1.257275 -0.437804,-1.372397 0.269268,-1.841877 1.021669,-0.678364 1.01637,-2.366265 -0.0092,-2.915109 -1.123587,-0.601324 -16.954864,-0.282378 -17.725398,0.357106 -0.808231,0.670772 -0.69125,1.703695 0.296633,2.619238 0.609816,0.565157 0.764385,0.942805 0.534568,1.306071 -0.592053,0.935842 -0.369598,2.341164 0.459648,2.903742 0.688425,0.467039 0.735235,0.635957 0.352778,1.272964 -0.755632,1.258559 -0.526023,2.12877 0.762247,2.888865 0.661769,0.390455 1.294349,0.947403 1.405732,1.237665 0.606682,1.580991 6.029568,2.47947 8.426686,1.39616 z m -8.011827,-26.499679 c -0.304903,-0.304899 -0.548009,-0.820837 -0.540241,-1.146528 0.0095,-0.396434 0.188084,-0.271505 0.540431,0.377977 0.600968,1.10775 0.809449,1.163933 1.754586,0.472835 0.670762,-0.490474 0.670797,-0.507588 0.0025,-1.24592 -0.372618,-0.411737 -0.926137,-0.719176 -1.230041,-0.6832 -0.303904,0.03598 -0.85332,-0.06415 -1.220929,-0.222511 -0.477484,-0.205694 -0.804936,-0.101169 -1.146527,0.365986 -0.416963,0.570233 -0.478152,0.579155 -0.478152,0.06973 0,-0.69577 0.768403,-1.137578 2.531646,-1.455625 1.160957,-0.209405 1.308898,-0.150477 1.411112,0.562099 0.0628,0.437815 0.477467,0.976425 0.921473,1.196915 0.444006,0.22049 1.039318,0.700712 1.322916,1.067163 0.50478,0.652255 0.526768,0.651867 1.044798,-0.01852 0.444877,-0.575712 0.529166,-0.593075 0.529166,-0.109015 0,0.872197 -0.633327,1.085709 -1.794185,0.604866 -0.88338,-0.365908 -1.144965,-0.343765 -1.682179,0.142409 -0.796463,0.720789 -1.261985,0.725837 -1.966492,0.02134 z"
         id="path4182" />
      <path
         style="fill:#523725;stroke-width:0.352778"
         d="m -112.47551,236.94534 c -0.80678,-0.97211 -0.15872,-1.4796 2.17019,-1.69942 1.85438,-0.17503 2.31379,-0.10864 2.69294,0.38917 0.38816,0.50964 0.34234,0.69336 -0.30367,1.21757 -0.96677,0.7845 -3.93522,0.84484 -4.55946,0.0927 z m -8.99956,-1.88033 c -1.4249,-0.88274 -2.06171,-1.70858 -1.81443,-2.353 0.29432,-0.76698 1.23381,-0.61679 3.04915,0.48746 1.00143,0.60916 1.5875,1.21755 1.5875,1.64797 0,0.9387 -1.47468,1.05239 -2.82222,0.21757 z m -36.15972,-15.37256 c 0,-0.83235 2.10262,-11.5048 2.54115,-12.89833 0.21097,-0.67042 4.57624,-8.41531 9.7006,-17.21087 7.17031,-12.30727 9.26633,-16.17182 9.09703,-16.77272 -0.12098,-0.42943 -0.79015,-2.56786 -1.48704,-4.75207 -0.69688,-2.1842 -1.18058,-4.05776 -1.07488,-4.16345 0.31262,-0.31262 11.16858,-4.38888 11.68854,-4.38888 0.32833,0 0.82305,1.61842 1.59059,5.20347 0.61271,2.86191 1.11202,5.48091 1.10957,5.82 -0.003,0.38417 -0.63598,0.92261 -1.68015,1.42869 -0.92163,0.44669 -2.73399,1.40581 -4.02747,2.13138 -2.33245,1.30838 -2.36234,1.34446 -3.6383,4.39214 -0.70758,1.69012 -3.75506,9.04879 -6.77216,16.35261 -5.48565,13.27969 -5.48565,13.27969 -10.95901,19.22639 -3.01035,3.27069 -5.61176,5.99963 -5.78092,6.0643 -0.16916,0.0647 -0.30755,-0.13002 -0.30755,-0.43266 z m 56.85263,-16.40752 c -0.3753,-0.23204 -0.42177,-1.09517 -0.22356,-4.15322 0.24317,-3.75196 0.22616,-3.88824 -0.60603,-4.85571 -0.70707,-0.82203 -1.49116,-1.13814 -4.50148,-1.81479 -5.45025,-1.22509 -6.23892,-0.75064 -7.96588,4.79214 -1.10803,3.55633 -1.6505,4.30915 -2.49589,3.46376 -0.52213,-0.52213 -0.47765,-0.85876 0.55093,-4.16953 0.88352,-2.84387 1.40419,-3.90738 2.47498,-5.05532 1.32168,-1.41691 1.42316,-1.45717 4.0011,-1.58735 3.17951,-0.16056 2.99687,0.22392 3.29609,-6.93906 0.23117,-5.53394 -0.28027,-9.28727 -1.82459,-13.39015 -0.91164,-2.42201 -1.21052,-5.73249 -0.4766,-5.2789 0.64308,0.39745 2.7527,5.25029 3.56124,8.19209 0.64542,2.34829 0.73871,3.57526 0.68927,9.06585 -0.0315,3.4925 -0.0981,6.96682 -0.14817,7.72071 -0.0896,1.34907 -0.0651,1.37831 1.54819,1.85211 1.97417,0.57978 3.689126,2.37625 4.036605,4.22848 0.321007,1.71111 -0.35253,7.13224 -0.961806,7.74131 -0.290469,0.29038 -0.668089,0.36459 -0.954399,0.18758 z m -61.37524,-23.41756 c -0.46958,-0.56581 -0.11682,-2.2204 1.37543,-6.45122 1.40504,-3.98357 2.72744,-6.63155 5.11763,-10.24759 2.29964,-3.47903 7.00724,-8.02328 9.91999,-9.57576 2.34561,-1.2502 2.57345,-1.31882 2.57345,-0.77517 0,0.76267 -1.65474,2.57245 -3.43629,3.75827 -5.35245,3.56264 -10.60052,11.63685 -13.14023,20.21634 -1.01553,3.4306 -1.5495,4.11195 -2.40998,3.07513 z m 39.35966,-40.0286 c -1.28007,-1.34181 -1.74461,-2.72446 -1.75514,-5.22392 -0.0144,-3.43308 1.60369,-5.80039 3.96478,-5.80039 2.21134,0 3.88213,2.62387 3.86778,6.07409 -0.0196,4.7095 -3.55773,7.59142 -6.07742,4.95022 z m 14.55184,-26.87935 c -4.98667,-0.90866 -7.67614,-3.43585 -9.21677,-8.66063 -0.80137,-2.71767 -1.78232,-4.05933 -2.96799,-4.05933 -1.4616,0 -2.53214,1.28551 -3.50615,4.2102 -1.10668,3.32306 -2.92812,5.59647 -5.60863,7.00036 -1.6528,0.86563 -2.15445,0.94719 -5.86435,0.95344 -3.80549,0.006 -4.16916,-0.0554 -5.86738,-0.9967 -3.10843,-1.72303 -4.36318,-4.20194 -4.36318,-8.62001 0,-2.64598 -0.005,-2.66043 -1.41111,-3.958401 -1.58252,-1.460977 -1.70716,-2.073501 -0.74525,-3.662529 0.62356,-1.030072 0.63435,-1.279317 0.16982,-3.922194 -1.28164,-7.291825 -1.20034,-15.42608 0.19745,-19.755556 0.37586,-1.164167 0.83786,-3.267678 1.02668,-4.674475 0.65783,-4.90142 3.50159,-9.237472 7.96086,-12.138399 2.79517,-1.818376 3.39845,-1.769184 4.78405,0.390087 1.97124,3.071908 4.65875,5.065829 8.12782,6.0302 1.03208,0.286911 4.47929,0.458562 9.87579,0.491759 9.01119,0.05543 10.09119,0.216171 14.29461,2.127493 2.895761,1.316726 5.017719,3.060965 5.69458,4.680917 0.802958,1.921753 1.259576,12.828517 0.801465,19.143808 -0.218157,3.00743 -0.421238,5.921269 -0.451291,6.475197 -0.04654,0.857903 0.128323,1.067001 1.180084,1.411111 1.11615,0.365175 1.244925,0.543581 1.340979,1.857774 0.09698,1.326903 0.0014,1.515646 -1.094563,2.162302 -1.18297,0.697966 -1.204578,0.754896 -1.454133,3.830486 -0.407522,5.02248 -1.803961,7.44001 -5.153001,8.9209 -1.85771,0.82145 -5.47367,1.17705 -7.75039,0.76219 z m 7.71486,-1.85508 c 2.920541,-1.45017 3.921727,-3.7821 3.924835,-9.14161 0.0025,-4.16306 -0.460696,-4.955618 -3.393975,-5.808345 -2.97785,-0.865685 -12.11829,-0.602442 -14.06656,0.405119 -2.051,1.060687 -2.73705,2.566977 -2.51453,5.520836 0.39085,5.18814 3.37681,8.80207 8.10386,9.80816 2.35935,0.50216 6.09902,0.13313 7.94637,-0.78416 z m -30.69769,0.0457 c 2.13041,-0.63891 4.71382,-3.06109 5.69962,-5.34391 0.44347,-1.02694 0.87979,-2.9015 0.97259,-4.17858 0.21047,-2.896147 -0.41545,-4.262999 -2.42061,-5.285952 -2.81543,-1.436331 -11.98992,-1.775139 -14.91974,-0.550979 -0.63557,0.265554 -1.51483,0.938625 -1.95392,1.495714 -0.74572,0.946126 -0.78938,1.280295 -0.6623,5.069837 0.15899,4.74111 0.82844,6.4721 3.07905,7.96149 2.31496,1.53196 6.68427,1.88834 10.20531,0.83238 z m 17.1199,-16.071231 c 2.81552,-0.453164 5.01617,-0.531675 10.41431,-0.371542 6.844437,0.203041 6.844437,0.203041 6.6407,-5.510837 -0.112052,-3.142629 -0.370311,-6.150438 -0.573899,-6.684014 -0.480917,-1.260401 -0.659317,-1.255642 -9.852431,0.262862 -14.15711,2.338447 -16.39748,2.31708 -25.63659,-0.244503 -4.05653,-1.124691 -5.94585,-1.473035 -8.09437,-1.492402 -2.80271,-0.02526 -2.80271,-0.02526 -3.26642,1.562237 -0.51311,1.756643 -1.55415,10.9411 -1.28882,11.37042 0.0922,0.149186 3.61109,0.280744 7.81974,0.292354 5.95237,0.0164 8.35734,0.164306 10.8271,0.665787 4.06103,0.824593 8.49997,0.875647 13.01068,0.149638 z m -23.06485,-2.827207 c 0,-0.31876 0.75406,-1.332706 1.67569,-2.253217 3.37416,-3.370054 7.90844,-3.234785 7.53833,0.224886 -0.023,0.214894 -1.00314,0.491197 -2.1781,0.614006 -1.17497,0.122809 -3.13211,0.621672 -4.34921,1.10859 -2.61685,1.046903 -2.68671,1.054855 -2.68671,0.305735 z m 29.10417,-0.179028 c -0.97014,-0.396063 -2.87386,-0.907986 -4.23049,-1.137606 -2.72982,-0.46204 -3.12445,-0.930282 -2.10078,-2.492604 0.6655,-1.015686 1.84986,-1.159814 4.2146,-0.512893 2.22229,0.607952 6.07336,4.958881 4.32153,4.882458 -0.24254,-0.01058 -1.23473,-0.343291 -2.20486,-0.739355 z m 60.936982,-4.878758 c -0.827574,-0.375634 -1.595815,-0.920457 -1.707201,-1.210719 -0.111382,-0.290262 -0.743962,-0.84721 -1.405731,-1.237665 -1.288271,-0.760095 -1.517879,-1.630306 -0.762247,-2.888865 0.382457,-0.637007 0.335647,-0.805925 -0.352778,-1.272964 -0.829246,-0.562578 -1.051701,-1.9679 -0.459648,-2.903742 0.229817,-0.363266 0.07525,-0.740914 -0.534568,-1.306071 -0.987884,-0.915543 -1.104865,-1.948466 -0.296633,-2.619238 0.770534,-0.639484 16.601811,-0.95843 17.725397,-0.357106 1.025525,0.548844 1.030824,2.236745 0.0092,2.915109 -0.707073,0.46948 -0.723904,0.584602 -0.269269,1.841877 0.461504,1.276262 0.443721,1.374486 -0.367788,2.031605 -0.799211,0.647164 -0.823987,0.770012 -0.394688,1.957208 0.458043,1.266701 0.458043,1.266701 -1.435636,2.994847 -1.041527,0.950482 -2.404523,1.959003 -3.02888,2.241165 -1.614,0.729404 -4.903978,0.638606 -6.719485,-0.185441 z"
         id="path4180" />
    </g>
  </g>
</svg>
