<svg id="Outline" height="512" viewBox="0 0 512 512" width="512" xmlns="http://www.w3.org/2000/svg"><path d="m352 224h32a8 8 0 0 0 8-8v-32a8 8 0 0 0 -8-8h-32a8 8 0 0 0 -8 8v32a8 8 0 0 0 8 8zm8-32h16v16h-16z"/><path d="m128 160h80a8 8 0 0 0 0-16h-80a8 8 0 0 0 0 16z"/><path d="m152 184a8 8 0 0 0 8 8h160a8 8 0 0 0 0-16h-160a8 8 0 0 0 -8 8z"/><path d="m128 224h192a8 8 0 0 0 0-16h-192a8 8 0 0 0 0 16z"/><path d="m352 296h32a8 8 0 0 0 8-8v-32a8 8 0 0 0 -8-8h-32a8 8 0 0 0 -8 8v32a8 8 0 0 0 8 8zm8-32h16v16h-16z"/><path d="m320 248h-160a8 8 0 0 0 0 16h160a8 8 0 0 0 0-16z"/><path d="m128 296h192a8 8 0 0 0 0-16h-192a8 8 0 0 0 0 16z"/><path d="m352 368h32a8 8 0 0 0 8-8v-32a8 8 0 0 0 -8-8h-32a8 8 0 0 0 -8 8v32a8 8 0 0 0 8 8zm8-32h16v16h-16z"/><path d="m320 320h-160a8 8 0 0 0 0 16h160a8 8 0 0 0 0-16z"/><path d="m128 368h192a8 8 0 0 0 0-16h-192a8 8 0 0 0 0 16z"/><path d="m288 400a8 8 0 0 0 0-16h-64a8 8 0 0 0 0 16z"/><path d="m320 416h-128a8 8 0 0 0 0 16h128a8 8 0 0 0 0-16z"/><path d="m448 48h-120v-8a24.027 24.027 0 0 0 -24-24h-96a24.027 24.027 0 0 0 -24 24v8h-120a8 8 0 0 0 -8 8v416a24.027 24.027 0 0 0 24 24h352a24.027 24.027 0 0 0 24-24v-416a8 8 0 0 0 -8-8zm-294.624 48a24.039 24.039 0 0 0 22.624 16h32v8a8 8 0 0 0 8 8h80a8 8 0 0 0 8-8v-8h32a24.039 24.039 0 0 0 22.624-16h49.376v352h-304v-352zm70.624 16v-16h64v16zm120-24a8.009 8.009 0 0 1 -8 8h-32v-8a8 8 0 0 0 -8-8h-80a8 8 0 0 0 -8 8v8h-32a8.009 8.009 0 0 1 -8-8v-24h176zm-144-48a8.009 8.009 0 0 1 8-8h96a8.009 8.009 0 0 1 8 8v8h-112zm240 432a8.009 8.009 0 0 1 -8 8h-352a8.009 8.009 0 0 1 -8-8v-408h80v16h-56a8 8 0 0 0 -8 8v368a8 8 0 0 0 8 8h320a8 8 0 0 0 8-8v-368a8 8 0 0 0 -8-8h-56v-16h80z"/></svg>