<svg id="Layer_5" enable-background="new 0 0 64 64" height="512" viewBox="0 0 64 64" width="512" xmlns="http://www.w3.org/2000/svg"><path d="m60 35c-.358 0-.697.074-1.016.189-.111-2.33-1.447-4.345-3.384-5.401 1.454-1.095 2.4-2.831 2.4-4.788 0-3.309-2.691-6-6-6s-6 2.691-6 6c0 2.123 1.111 3.987 2.78 5.054-1.809 1.123-3.066 3.052-3.274 5.332l-.419 4.614h-5.087c-1.654 0-3 1.346-3 3s1.346 3 3 3h.532c-.952 1.062-1.532 2.465-1.532 4v9.5c0 1.93 1.57 3.5 3.5 3.5s3.5-1.57 3.5-3.5v-4.5h4v6h-4v2h14v-2h-4v-6.069c3.94-.495 7-3.859 7-7.931v-9c0-1.654-1.346-3-3-3zm-12-10c0-2.206 1.794-4 4-4s4 1.794 4 4-1.794 4-4 4-4-1.794-4-4zm-4 27v7.5c0 .827-.673 1.5-1.5 1.5s-1.5-.673-1.5-1.5v-9.5c0-2.206 1.794-4 4-4h1.347c2.604 0 4.744-1.955 4.979-4.547l.669-7.362-1.992-.182-.669 7.362c-.141 1.556-1.425 2.729-2.987 2.729h-6.347c-.551 0-1-.448-1-1s.449-1 1-1h5.087c1.041 0 1.897-.782 1.992-1.818l.419-4.613c.237-2.605 2.387-4.569 5.002-4.569 2.481 0 4.5 2.019 4.5 4.5v2.5 2 5c0 2.206-1.794 4-4 4h-6c-1.654 0-3 1.346-3 3zm10 9h-2v-6h2zm7-14c0 3.309-2.691 6-6 6h-9v-1c0-.552.449-1 1-1h6c3.309 0 6-2.691 6-6v-5-2c0-.552.449-1 1-1s1 .448 1 1z"/><path d="m24 40h-5.086l-.419-4.613c-.208-2.28-1.465-4.209-3.274-5.332 1.668-1.068 2.779-2.932 2.779-5.055 0-3.309-2.691-6-6-6s-6 2.691-6 6c0 1.957.946 3.693 2.4 4.789-1.937 1.056-3.273 3.07-3.384 5.401-.319-.116-.658-.19-1.016-.19-1.654 0-3 1.346-3 3v9c0 4.072 3.06 7.436 7 7.931v6.069h-4v2h14v-2h-4v-6h4v4.5c0 1.93 1.57 3.5 3.5 3.5s3.5-1.57 3.5-3.5v-9.5c0-1.535-.58-2.938-1.532-4h.532c1.654 0 3-1.346 3-3s-1.346-3-3-3zm-16-15c0-2.206 1.794-4 4-4s4 1.794 4 4-1.794 4-4 4-4-1.794-4-4zm4 36h-2v-6h2zm6-8h-9c-3.309 0-6-2.691-6-6v-9c0-.552.449-1 1-1s1 .448 1 1v2 5c0 3.309 2.691 6 6 6h6c.551 0 1 .448 1 1zm6-9h-6.347c-1.562 0-2.846-1.173-2.987-2.729l-.669-7.362-1.992.182.669 7.362c.235 2.592 2.375 4.547 4.979 4.547h1.347c2.206 0 4 1.794 4 4v9.5c0 .827-.673 1.5-1.5 1.5s-1.5-.673-1.5-1.5v-7.5c0-1.654-1.346-3-3-3h-6c-2.206 0-4-1.794-4-4v-5-2-2.5c0-2.481 2.019-4.5 4.5-4.5 2.615 0 4.765 1.964 5.002 4.568l.419 4.613c.095 1.037.951 1.819 1.992 1.819h5.087c.551 0 1 .448 1 1s-.449 1-1 1z"/><path d="m37 21.786c3.556-1.825 6-5.521 6-9.786 0-6.065-4.935-11-11-11s-11 4.935-11 11c0 4.264 2.444 7.961 6 9.786v14.517l5 7.5 5-7.5zm-14-9.786c0-4.963 4.038-9 9-9s9 4.037 9 9-4.038 9-9 9-9-4.037-9-9zm6 10.574c.645.183 1.312.313 2 .376v12.05h-2zm3 17.623-2.132-3.197h4.263zm3-5.197h-2v-12.051c.688-.062 1.355-.192 2-.376z"/><path d="m63 12c0-2.757-2.243-5-5-5h-8c-2.757 0-5 2.243-5 5v5h13c2.757 0 5-2.243 5-5zm-16 0c0-1.654 1.346-3 3-3h8c1.654 0 3 1.346 3 3s-1.346 3-3 3h-11z"/><path d="m49 11h2v2h-2z"/><path d="m53 11h2v2h-2z"/><path d="m57 11h2v2h-2z"/><path d="m6 17h13v-5c0-2.757-2.243-5-5-5h-8c-2.757 0-5 2.243-5 5s2.243 5 5 5zm0-8h8c1.654 0 3 1.346 3 3v3h-11c-1.654 0-3-1.346-3-3s1.346-3 3-3z"/><path d="m13 11h2v2h-2z"/><path d="m9 11h2v2h-2z"/><path d="m5 11h2v2h-2z"/><path d="m33 19v-2.184c1.161-.414 2-1.514 2-2.816 0-1.654-1.346-3-3-3-.551 0-1-.448-1-1s.449-1 1-1 1 .448 1 1h2c0-1.302-.839-2.402-2-2.816v-2.184h-2v2.184c-1.161.414-2 1.514-2 2.816 0 1.654 1.346 3 3 3 .551 0 1 .448 1 1s-.449 1-1 1-1-.448-1-1h-2c0 1.302.839 2.402 2 2.816v2.184z"/></svg>