<?xml version="1.0" encoding="UTF-8" standalone="no"?>
<!-- Created with Inkscape (http://www.inkscape.org/) -->

<svg
   width="34.592567mm"
   height="33.85881mm"
   viewBox="0 0 34.592567 33.85881"
   version="1.1"
   id="svg5"
   inkscape:version="1.1 (c68e22c387, 2021-05-23)"
   sodipodi:docname="sign-out.svg"
   xmlns:inkscape="http://www.inkscape.org/namespaces/inkscape"
   xmlns:sodipodi="http://sodipodi.sourceforge.net/DTD/sodipodi-0.dtd"
   xmlns="http://www.w3.org/2000/svg"
   xmlns:svg="http://www.w3.org/2000/svg">
  <sodipodi:namedview
     id="namedview7"
     pagecolor="#ffffff"
     bordercolor="#666666"
     borderopacity="1.0"
     inkscape:pageshadow="2"
     inkscape:pageopacity="0.0"
     inkscape:pagecheckerboard="0"
     inkscape:document-units="mm"
     showgrid="false"
     fit-margin-top="0"
     fit-margin-left="0"
     fit-margin-right="0"
     fit-margin-bottom="0"
     inkscape:zoom="4.394379"
     inkscape:cx="31.972663"
     inkscape:cy="33.565607"
     inkscape:window-width="1920"
     inkscape:window-height="1057"
     inkscape:window-x="-8"
     inkscape:window-y="-8"
     inkscape:window-maximized="1"
     inkscape:current-layer="g1384" />
  <defs
     id="defs2" />
  <g
     inkscape:label="Layer 1"
     inkscape:groupmode="layer"
     id="layer1"
     transform="translate(-119.67334,-150.34649)">
    <g
       id="g1384"
       transform="translate(-0.28112183,2.7641781)">
      <path
         style="fill:#cccccc;stroke-width:0.0677333"
         d="m 134.06416,181.46282 c 0.0489,-0.0196 0.10731,-0.0172 0.12982,0.005 0.0225,0.0225 -0.0175,0.0385 -0.0889,0.0356 -0.0789,-0.003 -0.0949,-0.0193 -0.0409,-0.0409 z m 9.5631,-7.76863 c 0,-0.0141 0.0533,-0.0674 0.11853,-0.11854 0.10743,-0.0842 0.10983,-0.0819 0.0256,0.0256 -0.0885,0.11282 -0.14411,0.1487 -0.14411,0.093 z m -6.42932,-14.84754 c 0.003,-0.0789 0.0193,-0.095 0.0409,-0.0409 0.0196,0.0489 0.0172,0.10732 -0.005,0.12983 -0.0225,0.0225 -0.0385,-0.0175 -0.0356,-0.0889 z m 14.08288,-3.80436 -2.81063,-2.82787 2.82787,2.81063 c 2.62837,2.61235 2.85831,2.84511 2.81063,2.84511 -0.009,0 -1.28202,-1.27254 -2.82787,-2.82787 z m -4.6069,0.27093 -0.64213,-0.6604 0.6604,0.64213 c 0.61338,0.59641 0.69121,0.67867 0.64213,0.67867 -0.01,0 -0.30723,-0.29718 -0.6604,-0.6604 z"
         id="path1398" />
      <path
         style="fill:#b5b5b5;stroke-width:0.0677333"
         d="m 134.98862,170.65483 c -0.0177,-0.0466 -0.0243,-3.30031 -0.0145,-7.23054 l 0.0178,-7.14587 0.0166,7.19585 0.0166,7.19584 2.52307,0.0186 2.52307,0.0186 -2.52519,0.0161 c -1.96977,0.0125 -2.53229,-0.003 -2.55745,-0.0686 z m 13.27837,-9.46574 c 0.14551,-0.14901 0.2798,-0.27093 0.29843,-0.27093 0.0186,0 -0.0852,0.12192 -0.23069,0.27093 -0.14551,0.14901 -0.2798,0.27093 -0.29843,0.27093 -0.0186,0 0.0852,-0.12192 0.23069,-0.27093 z m -11.0637,-2.09973 c 0,-0.0931 0.0154,-0.13124 0.0342,-0.0847 0.0188,0.0466 0.0188,0.12277 0,0.16933 -0.0188,0.0466 -0.0342,0.008 -0.0342,-0.0847 z m -10.35164,-11.56547 c 2.89938,-0.01 7.62378,-0.01 10.49867,1e-5 2.87489,0.01 0.50267,0.0178 -5.2716,0.0178 -5.77426,0 -8.12645,-0.008 -5.22707,-0.0178 z"
         id="path1396" />
      <path
         style="fill:#939393;stroke-width:0.0677333"
         d="m 140.81389,166.54003 c 0,-1.8813 0.009,-2.65092 0.0193,-1.71027 0.0106,0.94065 0.0106,2.47989 0,3.42053 -0.0106,0.94065 -0.0193,0.17103 -0.0193,-1.71026 z m 6.77577,-4.67361 c 0.22119,-0.22352 0.4174,-0.4064 0.43603,-0.4064 0.0186,0 -0.14711,0.18288 -0.3683,0.4064 -0.22119,0.22352 -0.4174,0.4064 -0.43602,0.4064 -0.0186,0 0.1471,-0.18288 0.36829,-0.4064 z m -6.77776,-8.46666 c 0,-0.94996 0.01,-1.33858 0.0212,-0.8636 0.0116,0.47498 0.0116,1.25222 0,1.7272 -0.0116,0.47498 -0.0212,0.0864 -0.0212,-0.8636 z"
         id="path1394" />
      <path
         style="fill:#747474;stroke-width:0.0677333"
         d="m 151.28113,163.05176 c 1.50841,-1.50876 2.75781,-2.7432 2.77644,-2.7432 0.0186,0 -1.20029,1.23444 -2.70871,2.7432 -1.50842,1.50876 -2.75781,2.7432 -2.77644,2.7432 -0.0186,0 1.20029,-1.23444 2.70871,-2.7432 z m -4.50427,-0.37254 c 0.22119,-0.22352 0.4174,-0.4064 0.43603,-0.4064 0.0186,0 -0.14711,0.18288 -0.3683,0.4064 -0.22119,0.22352 -0.4174,0.4064 -0.43602,0.4064 -0.0186,0 0.1471,-0.18288 0.36829,-0.4064 z m -5.4356,-1.81183 c 1.33181,-0.0103 3.51113,-0.0103 4.84293,0 1.33181,0.0103 0.24215,0.0187 -2.42146,0.0187 -2.66362,0 -3.75328,-0.008 -2.42147,-0.0187 z m 0.34261,-5.75721 c 0.47715,-0.0117 1.23915,-0.0116 1.69333,7e-5 0.45419,0.0117 0.0638,0.0212 -0.86754,0.0212 -0.93133,-4e-5 -1.30294,-0.01 -0.82579,-0.0213 z"
         id="path1392" />
      <path
         style="fill:#555555;stroke-width:0.0677333"
         d="m 136.83217,174.07541 c 1.04975,-0.0105 2.78711,-0.0105 3.8608,-2e-5 1.07369,0.0105 0.2148,0.0191 -1.90864,0.0191 -2.12345,1e-5 -3.00192,-0.009 -1.95216,-0.0191 z m 7.369,-6.28232 c 0,-2.57048 0.008,-3.61219 0.0187,-2.31491 0.0103,1.29728 0.0103,3.4004 -10e-6,4.6736 -0.0103,1.2732 -0.0187,0.21179 -0.0187,-2.35869 z m 2.03382,-4.572 c 0.0674,-0.0745 0.13784,-0.13547 0.15647,-0.13547 0.0186,0 -0.0213,0.061 -0.0887,0.13547 -0.0674,0.0745 -0.13784,0.13547 -0.15647,0.13547 -0.0186,0 0.0213,-0.061 0.0887,-0.13547 z m -2.03478,-11.04053 c 0,-1.62052 0.009,-2.28346 0.0197,-1.4732 0.0108,0.81026 0.0108,2.13614 0,2.9464 -0.0108,0.81026 -0.0197,0.14732 -0.0197,-1.4732 z m 1.39666,1.17969 c 0.003,-0.0789 0.0193,-0.095 0.0409,-0.0409 0.0196,0.0489 0.0172,0.10732 -0.005,0.12983 -0.0225,0.0225 -0.0385,-0.0175 -0.0356,-0.0889 z"
         id="path1390" />
      <path
         style="fill:#303030;stroke-width:0.0677333"
         d="m 134.921,177.37736 c 0,-1.80679 0.009,-2.54593 0.0194,-1.64253 0.0107,0.90339 0.0107,2.38167 0,3.28506 -0.0107,0.9034 -0.0194,0.16426 -0.0194,-1.64253 z m 2.84089,-17.018 -0.12903,-0.1524 0.1524,0.12903 c 0.14322,0.12126 0.18323,0.17577 0.12903,0.17577 -0.0128,0 -0.0814,-0.0686 -0.1524,-0.1524 z m 9.79289,-4.23334 -0.84565,-0.8636 0.8636,0.84565 c 0.47498,0.46511 0.8636,0.85373 0.8636,0.8636 0,0.0487 -0.096,-0.0434 -0.88155,-0.84565 z m -21.06407,-5.1816 c 10e-6,-0.0279 3.05563,-0.0436 6.79028,-0.0347 3.73465,0.009 5.69299,0.024 4.35187,0.0338 -6.40598,0.0465 -11.14216,0.047 -11.14215,9.5e-4 z m -6.16372,-2.7857 c 0,-0.0141 0.0533,-0.0674 0.11853,-0.11854 0.10743,-0.0842 0.10983,-0.0819 0.0256,0.0256 -0.0885,0.11282 -0.14411,0.1487 -0.14411,0.093 z"
         id="path1388" />
      <path
         style="fill:#000000;stroke-width:0.0677333"
         d="m 128.79366,178.7958 c -2.81263,-1.45477 -5.79143,-2.99695 -6.61956,-3.42708 -0.82813,-0.43013 -1.60159,-0.87805 -1.71879,-0.99538 -0.11721,-0.11732 -0.27785,-0.35047 -0.35698,-0.51811 l -0.14387,-0.3048 v -12.29361 c 0,-10.23919 0.0155,-12.33752 0.0928,-12.55645 0.11824,-0.33477 0.49662,-0.75473 0.8508,-0.94432 l 0.27556,-0.14749 10.73249,-0.0178 c 11.86119,-0.0196 11.18305,-0.0433 11.69767,0.40853 0.13646,0.11981 0.31918,0.37046 0.40604,0.557 l 0.15794,0.33916 6.8e-4,3.0988 6.8e-4,3.0988 h -1.65947 -1.65947 v -1.7339 c 0,-1.9244 -0.0245,-2.05733 -0.42442,-2.29921 -0.21303,-0.12885 -0.40725,-0.13299 -7.07704,-0.15068 -3.7719,-0.01 -6.8574,0.005 -6.85667,0.0339 7e-4,0.0286 1.73019,0.93597 3.84328,2.01632 4.00649,2.04837 4.20797,2.17124 4.46806,2.72471 0.11231,0.239 0.12129,0.73502 0.13848,7.65542 l 0.0184,7.39987 h 2.60964 c 2.88146,0 2.88794,-8.8e-4 3.14753,-0.42662 0.12658,-0.20761 0.13223,-0.36473 0.13247,-3.68818 l 2.5e-4,-3.47133 h 1.66119 1.66118 l -0.0187,4.89373 c -0.0206,5.41638 0.011,5.04144 -0.46591,5.52516 -0.46927,0.476 -0.20551,0.44872 -4.70047,0.48618 l -4.06401,0.0339 -0.0339,3.42054 c -0.0248,2.50657 -0.0559,3.45889 -0.11619,3.5641 -0.0961,0.16766 -0.47829,0.36455 -0.70685,0.36416 -0.0875,-1.4e-4 -2.46034,-1.19053 -5.27296,-2.64529 z m 17.96103,-12.58465 c -0.43844,-0.15551 -0.85128,-0.54149 -1.00239,-0.93717 -0.13812,-0.36166 -0.10033,-1.09942 0.0739,-1.44383 0.0658,-0.13009 0.73239,-0.85375 1.48124,-1.60813 l 1.36155,-1.3716 h -4.96837 c -3.70287,0 -5.03937,-0.021 -5.24715,-0.0824 -0.43379,-0.12816 -0.95324,-0.68473 -1.09537,-1.17365 -0.26995,-0.92859 0.14076,-1.84245 1.01978,-2.26908 0.1703,-0.0827 1.01871,-0.10411 5.24072,-0.1325 l 5.03753,-0.0339 -1.32924,-1.29739 c -1.50357,-1.46753 -1.667,-1.70577 -1.66553,-2.42795 0.001,-0.5062 0.15872,-0.86813 0.52028,-1.19409 0.36264,-0.32694 0.67564,-0.4222 1.25181,-0.38098 0.39666,0.0284 0.52188,0.0706 0.82015,0.2763 0.1936,0.13353 1.62334,1.51773 3.1772,3.07598 3.06496,3.07364 3.10951,3.12867 3.11598,3.84825 0.006,0.70945 -0.0704,0.80312 -3.2802,4.00277 -1.86439,1.85849 -3.03314,2.97311 -3.20994,3.0613 -0.41972,0.20933 -0.87347,0.24 -1.302,0.088 z"
         id="path1386" />
    </g>
  </g>
</svg>
