<svg height="512" viewBox="0 0 64 64" width="512" xmlns="http://www.w3.org/2000/svg"><g id="outline"><path d="m44 6h2v2h-2z"/><path d="m48 6h2v2h-2z"/><path d="m52 6h2v2h-2z"/><path d="m32 58a3 3 0 1 0 -3-3 3 3 0 0 0 3 3zm0-4a1 1 0 1 1 -1 1 1 1 0 0 1 1-1z"/><path d="m14 12h8v2h-8z"/><path d="m12 16h4v2h-4z"/><path d="m18 16h6v2h-6z"/><path d="m12 20h6v2h-6z"/><path d="m20 20h4v2h-4z"/><path d="m12 24h12v2h-12z"/><path d="m58 14h-4v-2h6v-10h-22v10h7v2h-4v4h-13v-2h8v-3a5.006 5.006 0 0 0 -5-5h-18a5.006 5.006 0 0 0 -5 5v5h-6v44h60v-44h-4zm-30-1a3 3 0 0 1 6 0v1h-6zm12-3v-6h18v6zm12 2v2h-5v-2zm-9 4h13v8h-13zm-33-3a3 3 0 0 1 3-3h14a4.973 4.973 0 0 0 -1 3v15h-16zm50 47h-56v-10h56zm0-40v28h-56v-28h4v8h-2v2h24v-2h-2v-8h13v6h17v-6z"/><path d="m6 54h2v2h-2z"/><path d="m10 54h2v2h-2z"/><path d="m41 28v4h-8v14h25v-18zm0 16h-6v-10h6zm7-14h3v2h-3zm0 4h3v2h-3zm0 4h3v2h-3zm-5-8h3v2h-3zm0 4h3v2h-3zm0 4h3v2h-3zm13 6h-13v-2h13zm0-4h-3v-2h3zm0-4h-3v-2h3zm0-4h-3v-2h3z"/><path d="m7 32v14h22v-14zm5 12h-3v-2h3zm0-4h-3v-2h3zm0-4h-3v-2h3zm5 8h-3v-2h3zm0-4h-3v-2h3zm0-4h-3v-2h3zm5 8h-3v-2h3zm0-4h-3v-2h3zm0-4h-3v-2h3zm5 8h-3v-2h3zm0-4h-3v-2h3zm0-4h-3v-2h3z"/><path d="m37 26h2v-4h-9v2h7z"/><path d="m37 28h2v2h-2z"/></g></svg>