<svg id="Layer_1" enable-background="new 0 0 512 512" height="512" viewBox="0 0 512 512" width="512" xmlns="http://www.w3.org/2000/svg"><g><g><path d="m440.64 0h-139.742c-5.522 0-10 4.478-10 10s4.478 10 10 10h139.742c12.272 0 22.257 9.984 22.257 22.258v427.456c0 12.289-9.984 22.286-22.257 22.286h-369.28c-12.272 0-22.257-9.997-22.257-22.286v-427.456c0-12.274 9.984-22.258 22.257-22.258h139.741c5.523 0 10-4.478 10-10s-4.477-10-10-10h-139.741c-23.3 0-42.257 18.957-42.257 42.258v427.456c0 23.316 18.956 42.286 42.257 42.286h369.28c23.301 0 42.257-18.97 42.257-42.286v-427.456c0-23.301-18.956-42.258-42.257-42.258z"/><path d="m317.678 107.561h61.906c5.522 0 10-4.478 10-10s-4.478-10-10-10h-61.906c-5.522 0-10 4.478-10 10s4.478 10 10 10z"/><path d="m317.678 158.611h112.36c5.522 0 10-4.478 10-10s-4.478-10-10-10h-112.36c-5.522 0-10 4.478-10 10s4.478 10 10 10z"/><path d="m317.678 209.634h112.36c5.522 0 10-4.478 10-10s-4.478-10-10-10h-112.36c-5.522 0-10 4.478-10 10s4.478 10 10 10z"/><path d="m110.929 280.567c-21.487 0-38.969 17.481-38.969 38.97s17.481 38.97 38.969 38.97 38.969-17.481 38.969-38.97-17.481-38.97-38.969-38.97zm0 57.94c-10.459 0-18.969-8.51-18.969-18.97s8.509-18.97 18.969-18.97 18.969 8.51 18.969 18.97-8.509 18.97-18.969 18.97z"/><path d="m110.929 391.174c-21.487 0-38.969 17.481-38.969 38.97 0 21.487 17.481 38.969 38.969 38.969s38.969-17.481 38.969-38.969c0-21.489-17.481-38.97-38.969-38.97zm0 57.938c-10.459 0-18.969-8.51-18.969-18.969 0-10.46 8.509-18.97 18.969-18.97s18.969 8.51 18.969 18.97-8.509 18.969-18.969 18.969z"/><path d="m408.242 399.734h-196.801c-17.518 0-31.769 14.265-31.769 31.798 0 17.518 14.251 31.77 31.769 31.77h196.801c17.533 0 31.797-14.252 31.797-31.77 0-17.533-14.264-31.798-31.797-31.798zm0 43.568h-196.801c-6.489 0-11.769-5.28-11.769-11.77 0-6.505 5.28-11.798 11.769-11.798h196.801c6.505 0 11.797 5.293 11.797 11.798 0 6.489-5.292 11.77-11.797 11.77z"/><path d="m179.672 320.927c0 17.518 14.251 31.77 31.769 31.77h196.801c17.533 0 31.797-14.252 31.797-31.77 0-17.534-14.264-31.799-31.797-31.799h-196.801c-17.517 0-31.769 14.265-31.769 31.799zm240.367 0c0 6.489-5.292 11.77-11.797 11.77h-196.801c-6.489 0-11.769-5.28-11.769-11.77 0-6.506 5.28-11.799 11.769-11.799h196.801c6.505 0 11.797 5.293 11.797 11.799z"/><path d="m177.711 43.114c-28.207 0-54.707 10.966-74.621 30.881-41.104 41.136-41.104 108.068.002 149.208 19.912 19.911 46.412 30.877 74.618 30.877 28.188 0 54.678-10.966 74.589-30.877 41.136-41.139 41.136-108.074 0-149.211-19.91-19.912-46.4-30.878-74.588-30.878zm-47.449 176.653c1.564-14.909 10.151-28.305 23.07-36.027 7.143 4.253 15.478 6.705 24.379 6.705 8.893 0 17.221-2.451 24.358-6.701 12.925 7.724 21.518 21.111 23.089 36.006-13.923 9.322-30.296 14.331-47.447 14.331-17.155-.001-33.528-5.003-47.449-14.314zm47.449-49.323c-15.32 0-27.784-12.452-27.784-27.757 0-15.32 12.464-27.785 27.784-27.785 15.304 0 27.755 12.465 27.755 27.785 0 15.305-12.451 27.757-27.755 27.757zm64.606 34.112c-4.388-13.954-13.236-26.242-25.248-34.862 5.291-7.687 8.398-16.99 8.398-27.007 0-26.349-21.423-47.785-47.755-47.785-26.348 0-47.784 21.437-47.784 47.785 0 10.017 3.108 19.319 8.402 27.006-12.008 8.622-20.853 20.917-25.234 34.881-29.085-33.556-27.72-84.555 4.141-116.44 16.132-16.134 37.609-25.02 60.474-25.02 22.846 0 44.313 8.886 60.447 25.021 31.88 31.881 33.251 82.867 4.159 116.421z"/><path d="m256 20h.057c5.522 0 9.972-4.478 9.972-10s-4.507-10-10.029-10c-5.523 0-10 4.478-10 10s4.477 10 10 10z"/></g></g></svg>